<?xml version="1.0" encoding="UTF-8"?>
<svg id="Layer_1" xmlns="http://www.w3.org/2000/svg" version="1.1" viewBox="0 0 1672.4 776.8">

  <!-- Generator: Adobe Illustrator 29.0.1, SVG Export Plug-In . SVG Version: 2.1.0 Build 192)  -->
  <defs>
    <style>
      .st0 {
        fill: #9b2822;
        stroke: #fff;
      }

      .st0, .st1, .st2, .st3 {
        stroke-miterlimit: 10;
      }

      .st1, .st2, .st3 {
        fill: #fff;
        stroke: #000;
        stroke-width: .3px;
      }

      .st1, .st3 {
        isolation: isolate;
      }

      .st3 {
        fill-rule: evenodd;
      }
    </style>
  </defs>
  <path id="HTI" class="st2" d="M1401.3,355.6l.4,2.9-.4,2-1,.9,1.2,1.6v1.6l-3.1-.9-2.1.5-2.9-.5-2.1,1.1-2.5-1.8.4-1.8,4.1.7,3.5.5,1.7-1.4-2.1-2.5v-2l-2.9-.9,1-1.6h2.9l3.9,1.1v.5h-.2.2Z"/>
  <path id="DOM" class="st2" d="M1401.3,364.9v-1.6l-1-1.6,1-.9.4-2-.4-2.9.6-.9h3.5l2.7,1.4h1.2l.8,1.8h2.5v1.6h2.1l2.3,2.3-1.7,2.3-2.3-1.1h-3.5l-.8,1.1h-1.7c0,.2-.6-.9-.6-.9l-1.4.9-1.9,3.8-1.2-.9v-1.6l-.6-.7h0Z"/>
  <g id="BHS">
    <path class="st2" d="M1368,316.4l2.1-.5h3.1v1.6l-5,.9-.4-2h.2Z"/>
    <path class="st2" d="M1373.4,315l3.7,2.5-.8,3.8-.8-.7v-2.9l-2.1-2.3v-.7h0v.2h0Z"/>
    <path class="st2" d="M1371.5,325.2h1.4l1.7,4.7v3.2h-1c0,.2-1.2-2.9-1.2-2.9l-1.7-1.6,1-3.6h-.2v.2h0Z"/>
  </g>
  <path id="FLK" class="st2" d="M1449.4,750.9l5.6-3.4,3.9,1.4,2.7-2.3,3.7,2.5-1.4,2-6.2,1.6-2.1-2-3.9,2.5-2.3-2.5h0v.2h0Z"/>
  <path id="GRL" class="st2" d="M1515.4,7.9l15.3-3.4h16.1l5.8-1.8,16.1-.5,36.5.7,28.7,4.3-8.5,2h-17.5l-24.6.7,2.3.9,16.3-.7,13.8,2,8.9-1.8,3.7,2-5,3.2,11.6-2,22.3-2.3,13.6,1.1,2.5,2.5-18.6,3.8-2.5,1.4-14.7.9h10.5c0,.2-5.4,4.3-5.4,4.3l-3.7,3.6v6.1l5.6,3.6h-7.2l-7.4,2,8.5,2.9,1,4.7-5,.5,6,4.7-10.1.5,5.4,2.3-1.4,2-6.4.9h-6.4l5.8,3.8v2.5l-9.1-2.3-2.3,1.6,6.2,1.4,6,3.4,1.7,4.5-8.3,1.1-3.5-2-5.6-3.2,1.7,3.8-5.4,2.9h12l6.4.5-12.2,4.7-12.4,4.3-13.4,1.8h-5.2l-4.7,2.3-6.4,5.9-9.9,3.8h-3.1l-6.2,1.6-6.6,1.4-3.9,3.4v3.8l-2.3,3.6-7.4,4.5,1.9,4.3-2.1,4.5-2.3,5.4h-6.4l-6.8-4.3h-9.1l-4.3-3.2-3.1-5.4-7.8-7-2.3-3.6-.6-5-6.4-5.2,1.7-4.1-3.1-2,4.5-6.5,6.8-2,1.9-2.3,1-4.3-5.2,2-2.5.9-4.1.7-5.6-1.8v-3.8l1.4-2.9h4.3l9.3,1.4-7.8-3.4-4.1-1.8-4.5.7-3.7-1.4,5.2-5.2-2.9-2-3.7-3.8-5.6-5.9-5.8-2.3v-2.3l-12.2-3.2-9.7-.5h-12.2l-11.1.7-5.4-1.8-8.1-3.4,12-1.8h9.3c0-.2-19.6-1.8-19.6-1.8l-10.3-2.3.6-2.3,17.3-2.7,16.7-2.7,1.9-2-12.4-2,3.9-2.3,15.9-3.8,6.6-.7-1.9-2.5,10.7-1.6,14-.9h14l5,1.6,12.2-2.9,10.9,2,6.4.5,9.5,1.8-10.9-2.9.6-2.5v1.4h0Z"/>
  <path id="URY" class="st2" d="M1465.7,631.4l2.9-.7,4.5,4.3h1.7l4.7,3.4,3.5,2.9,2.7,3.8-2.1,2.7,1.2,3.2-2.1,3.4-5.2,3.2-3.3-1.1-2.5.7-4.3-2.5h-3.1l-2.9-2.9.4-3.6,1-1.4v-5.4l1.2-5.6,1.2-4.5h.2v.2h.3Z"/>
  <path id="BOL" class="st2" d="M1411.2,525l3.3.5h2.3l1-1.8,3.9-2.3,2.5-2,6-.9-.4,4.1.6,2.3-.4,3.6,5,5,5.2.9,1.9,2,3.1,1.1,1.9,1.6h2.9l2.7,1.6v3.2l1,1.6v2.5h-1.2l1.9,6.5h8.7l-.6,3.4.4,2.3,2.5,1.6,1,3.4-.8,4.3-1.2,2.5.4,3.2-1.4,1.1v-1.8l-4.3-2.9h-4.3l-8.1,1.6-2.3,5v2.9l-1.9,6.5-.8-1.1h-5.2l-1.9,4.3-2.7-4.1-6-1.4-3.7,5-3.3.7-1.9-7.7-2.5-6.3,1.4-5.4-2.5-2.3-.6-4.1-2.3-3.8,2.9-5.9-1.9-4.7,1-1.8-.8-2,1.9-2.7v-4.7l.4-3.8,1-1.8-3.9-8.8h0l.2.2v-.4h0Z"/>
  <path id="COL" class="st2" d="M1423.4,457.6l-.8.7-.8-3.2-1.2-1.8-1.4,1.8h-8.9v3.4l2.7.7v2l-1-.7-2.5.9v4.1l2.1,2,.6,3.2v2.5l-2.1,15.1-2.3-2.9h-1.4l2.9-5.9-3.5-2.5-2.7.5-1.7-.9-2.5,1.6-3.3-.7-2.7-5.9-2.1-1.4-1.4-2.7-3.1-2.7-1.2.5-1.9-1.4-2.3-1.8-1.2.9-3.9-.7-1-2.5h-.8l-4.5-3.2-.6-1.8,1.7-.5v-2.7l.8-2,2.3-.5,1.9-3.4,1.7-2.9-1.7-1.4.8-3.2-1-5,1-1.4-.8-4.7-1.9-2.9.6-2.7,1.4.5.8-1.6-1-3.2.6-.9h2.3l3.5-3.6,1.9-.7v-1.8l.8-4.7,2.7-2.5h2.9l.4-1.4,3.5.5,3.7-2.7,1.9-1.4,2.3-2.7,1.7.5,1.2,1.4-.8,1.8-2.9.9-1.2,2.7-1.9,1.6-1.2,2-.6,3.8-1.2,3.2,2.3.5.6,2.5,1,1.1.4,2.3-.6,2v1.1l1.2.5,1,2,5.8-.5,2.7.7,3.3,4.7,1.9-.7h3.3c0,.2,2.7-.5,2.7-.5l1.7.9-.8,2.9-1,1.8-.4,4.1.8,3.6,1.2,1.6v1.4l-2.3,2.7,1.7,1.1,1.2,2,1.4,5.6-.4.7h0l-.4.3h0Z"/>
  <path id="PAN" class="st2" d="M1375.5,416.5l-.6.9,1,3.2-.8,1.6-1.4-.5-.6,2.7-1.4-1.6-1-2.9,1.2-1.6-1.2-.5-.8-1.8-2.3-1.6-2.1.5-.8,2-1.9,1.4h-1l-.4,1.4,2.3,2.9-1.2.7-.6.9h-2.1c0,.2-.8-2.9-.8-2.9l-.6.9h-1.4c0-.2-.8-2.5-.8-2.5l-1.9-.5-1.2-.7h-1.9v1.1l-.6-.9v-1.1l.6-1.1v-.9l.4-.7-1-.9v-2.3l1.7-.5,1.7,2v1.1h1.7c0,.2.4,0,.4,0l1.2,1.4,2.3-.5,1.9-1.4,2.9-1.1,1.7-1.6h2.5v.9h2.5l2.1,1.1,1.4,1.6,1.7,1.6h-.2l-.6.2h0Z"/>
  <path id="CRI" class="st2" d="M1351.7,411.6l-1.9.5v2.3l1,.9-.6.7v3.2l-2.7-1.1-.8-1.1.4-.9v-1.1l-1.4-1.4-1.9-1.1-1.7-.7v-1.6l-1.4-.9v1.6l-.6,1.4-1-1.6-1.4-.5-.6-1.1v-1.8l.6-1.8-1.2-.7,1-1.1.6-.7,3.1,1.6,1-.7,1.4.5.8,1.1,1.2.5,1-1.1,1.2,2.9,1.9,2.3,2.1,2.5v-.7h-.2v-.3h0Z"/>
  <path id="NIC" class="st2" d="M1346.6,404.1l-1,1.1-1.2-.5-.8-1.1-1.4-.5-1,.7-3.1-1.6-.6.7-1.7-1.8-2.1-2.3-1-1.8-1.9-1.8-2.3-2.5.4-.9.8.9.4-.5h1.4l.6-1.6h.6v-2.7h2.1l1-1.6,1.4,1.1.4-.7.8-.7,1.7-1.6v-1.1h.4l.6-1.4h.4l.8.7h.8c0,.2,1-.5,1-.5h1.2l1.7-.7.6-.7h1.7l-.4.7v3.2l-1,1.8-.4,2.3v6.3l-.6.5-.4,2.5.4,1.6-1,1.4v1.6l.8.9-.4.5h.3,0Z"/>
  <path id="HND" class="st2" d="M1348.8,381.6h-1.7l-.6.7-1.7.7h-1.2l-1,.7h-.8c0-.2-.8-1.1-.8-1.1h-.4l-.6,1.6h-.4v1.1l-1.7,1.6-.8.7-.4.7-1.4-1.1-1,1.6h-2.1v2.7h-.6l-.6,1.4h-1.4l-.8-1.6-1.4-.5.4-2.3-.6-.7-1-.5-2.1.7v-.7l-1.7-.9-1-1.1-1.4-.5,1-1.4-.4-1.1v-1.1l2.5-1.6,2.1-2h.4l1-.7h1.2l.4.5h.6c0-.2,2.1,0,2.1,0h2.1l1.4-.7.6-.7h1.4c0,.2,1,.7,1,.7h1.2l.8-.7,2.1.7h.6l1.4,1.1,1.2,1.1,1.7.9,1.2,1.6h1.2v.2h0Z"/>
  <path id="SLV" class="st2" d="M1320.5,384.7l1.4.5,1,1.1,1.4.9v.7l2.3-.7,1,.5.6.7-.4,2.3-.4,1.4h-2.7l-1.7-.7-1.9-1.1-2.5-.5-1.2-1.1v-.9l1.7-1.4.8-.7v-.7l.8-.5h-.4v.2h.2,0Z"/>
  <path id="GTM" class="st2" d="M1307.3,384.3v-1.6l.6-1.4-.6-1.1,2.3-4.5h5.8v-1.8l-.8-.5-.4-1.1-1.7-1.4-1.7-1.8h2.1v-3.2h8.5v4.3l-.4,6.3h1.4l1.4.9.4-.9,1.2.7-2.1,2-2.3,1.6v2.3l-1,1.4-1,.5v.7l-.6.7-1.7,1.4v.9l-2.5-.9h-2.9l-2.1-1.1-2.5-2.3h.6,0Z"/>
  <path id="BLZ" class="st2" d="M1321.6,366v-.9h.4c0-.2.8.5.8.5l1.7-3.4h.8v.7h.8v1.6l-.8,2.5.4.9-.4,2v3.2l-.8,1.6h-.8l-.8,2h-1.4l.4-6.3v-4.3h-.3,0Z"/>
  <path id="VEN" class="st2" d="M1451.4,435.7l.6,1.6-1.7,2-5.2,2-3.3.9-1.2,1.4-3.7-1.4-3.3-.7-.8.5,2.1,1.4v3.6l.4,3.4,3.9.5v1.1l-3.1,1.6-.6,2.3-1.9.9-3.3,1.4-.8,1.6-3.5.5-2.5-2.9-1.4-5.6-1.2-2-1.7-1.1,2.3-2.7v-1.4l-1.4-1.6-.8-3.6.4-4.1,1-1.8.8-2.9-1.7-.9-2.7.7h-3.3c0-.2-1.9.2-1.9.2l-3.3-4.7-2.7-.7-5.8.5-1-2-1.2-.5v-1.1l.4-2-.4-2.3-1-1.1-.6-2.5-2.3-.5,1.2-3.2.6-3.8,1.2-2,1.9-1.6,1.2-2.7,2.9-.9v1.4l-2.9.7,1.4,2.5v2.9l-2.1,3.2,1.7,4.3,2.1-.5,1-4.1-1.4-2v-4.3l5.6-2.3-.6-2.7,1.7-1.8,1.7,3.8h3.3l2.9,3.2v1.8h4.3l5-.7,2.7,2.5,3.5.7,2.5-1.8v-1.4h5.8c0-.2,5.6-.2,5.6-.2l-3.9,1.6,1.7,2.5,3.7.5,3.5,2.7.8,4.5h2.5l1.9,1.1-3.7,3.2-.4,2,1.7,2-1,1.1-2.9.9v2.5l-1.2,1.6,3.1,4.3-.8.9h0l-.4-.4h0Z"/>
  <path id="GUY" class="st2" d="M1470.6,453.9h-3.5c0-.2-1.4,1.4-1.4,1.4l-2.1.9h-1.4c0,.2-.4,1.4-.4,1.4h-2.3c0-.2-2.9-2.9-2.9-2.9l-.4-2.5-1.2-2.7.8-4.7,1.2-2-1-2.5-1.7-.9.6-2.5-1-1.4h-2.5c0,.2-3.1-4.1-3.1-4.1l1.2-1.6v-2.5l2.7-.9,1-1.1-1.7-2,.4-2,3.7-3.2,2.9,2,2.9,3.6v2.9h1.9l2.5,2.7,1.9,2-.8,5-2.9,1.4v1.4l-.6,2.9,2.1,4.1h1.4l.6,3.2,2.9,4.7h.2Z"/>
  <path id="SUR" class="st2" d="M1479.9,451.7l-2.7-1.1-2.1.7-1.9-.5-.4,1.6.8,1.1-.4,1.1-2.5-.5-2.9-4.7-.6-3.2h-1.4l-2.1-4.1.8-2.9v-1.4l2.5-1.4.8-5,5.6,1.1.4-.9,3.7-.5,5,1.6-2.5,4.7.4,3.8,1.9,3.2-.8,2.5-.4,2.5-1.2,2.3h0v-.2.2h0Z"/>
  <path id="GUF" class="st2" d="M1492.9,441.5l-2.7,5-1.4,4.1-1.9,2-2.3.5-.6-1.6h-1l-1.4,1.4-2.1-1.1,1.2-2.3.4-2.5.8-2.5-1.9-3.2-.4-3.8,2.5-4.7,1.7.7,3.3,1.4,4.7,4.7.8,2.3h.2v-.4h.1Z"/>
  <path id="ECU" class="st2" d="M1384.5,465.2l.6,4.3-1.4,3.6-5,5.9-5.6,2.3-2.9,4.7-.8,3.6-2.5,2.3-1.9-2.7-1.9-.7-1.9.5v-2l1.2-1.4-.6-2.3,2.5-4.1-1-2.5-1.7,2.5-2.7-2.5.8-1.6-.8-5,1.7-.9.8-3.4,1.7-3.6v-2.3l2.3-1.1,3.1-2.3,4.5,3.2h.8l1,2.3,3.9.7,1.2-.9,2.3,1.8,1.9,1.4h.2v.2h.2Z"/>
  <path id="PRI" class="st2" d="M1426,362.2l2.3.5.8,1.1-1.2,1.4h-6.2v-2.5l.4-.9h3.7v.5h.2,0Z"/>
  <path id="JAM" class="st2" d="M1374.4,362.4l3.1.5,2.5,1.4.8,1.6h-3.3l-1.4,1.1-2.5-.9-2.7-2,.6-1.4,1.9-.5h1v.2h0Z"/>
  <path id="CUB" class="st2" d="M1353,336.2l3.9.5h3.7l4.3,2,1.9,2,4.3-.7,1.7,1.4,3.9,3.4,2.9,2.5h1.4l2.7,1.1-.4,1.6h3.3l3.5,2.5-.6,1.4-3.1.7h-3.1c0,.2-3.1,0-3.1,0l-6.6.5,3.1-3.2-1.9-1.4-2.9-.5-1.7-1.6-1-3.2h-2.5l-4.3-1.4-1.4-1.1-6-.9-1.7-1.1,1.7-1.4h-4.5c0-.2-3.3,2.5-3.3,2.5h-1.9l-.6,1.4-2.3.7-1.9-.5,2.5-1.8,1-2,2.1-1.1,2.3-1.1,3.5-.5,1-.7h0Z"/>
  <path id="ISL" class="st2" d="M1663.1,97.2l-1,3.6,5.2,3.8-6,4.3-13.2,3.8-3.9.9-6-.9-12.8-1.8,4.5-2.5-9.9-2.7,8.1-1.1v-1.6l-9.7-1.4,3.1-3.6,7-.9,7.2,3.8,7-2.9,5.8,1.6,7.4-2.9,7.6.5h-.4,0Z"/>
  <path id="PRY" class="st2" d="M1463.2,575.9l1.4,3.2v7.4l4.5,1.1,1.9-1.1,3.1,1.6.8,1.6.4,5,.6,2.3h1.7c0,.2,1.7-.7,1.7-.7l1.7.9v2.9l-.6,3.2-.8,3.2-.8,5-4.1,4.3-3.7.9-5.2-.9-4.5-1.6,4.5-8.3-.6-2.5-4.7-2.3-5.6-4.1-3.7-.9-8.5-9,1.9-6.5v-2.9l2.3-5,8.1-1.6h4.3l4.3,2.9v1.8h-.2v.2h-.2Z"/>
  <path id="TTO" class="st2" d="M1447.1,405l2.7-.7h1v4.3l-3.9.7-.8-.5,1.2-1.6v-2.3h-.2,0Z"/>
  <g id="FJI">
    <path class="st2" d="M907.8,553.4v2.7l-2.9,1.4-2.9,1.1-.6-2,2.3-1.1h1.4c0-.2,2.7-2,2.7-2h0Z"/>
    <path class="st2" d="M899.2,561.3l1-.9,1.7,1.6-.8,2.9-2.9.7-2.5-.7-.4-2.5,1.9-1.8,2.1.7h0Z"/>
  </g>
  <path id="TZA" class="st2" d="M239.1,469.7l.8.7,16.5,11.3v3.2l6.8,5.6-2.1,6.8v3.2c.2,0,3.3,2,3.3,2v1.4l-1,3.4v1.6c.2,0,0,2.7,0,2.7l1.7,3.4,1.9,5.4,1.7,1.1-3.7,3.2-5,2.3h-2.7l-1.7,1.6h-3.1l-1.2.9-5.6-1.6-3.5.5-1.2-7.4-1.7-2.5-.8-1.6-4.5-1.1-2.7-1.6-2.9-.9-1.9-.9-1.9-1.4-2.5-7-2.7-3.2-1-3.2.4-2.9-.8-5.2h1.9c0-.2,1.7-2.3,1.7-2.3l1.9-2.9,1.2-1.1v-1.8l-1-1.4v-2.3h0l1.2-.7v-3.2l-1.7-3.2,1.7-.7h5l9.3-.5h0v.2h0Z"/>
  <path id="ESH" class="st2" d="M44.2,311.7v9.7h-15.1c0-.2,0,13.8,0,13.8l-4.3.5-1,2.9.8,7.9H6.9l-1,1.8v-2.3h0l10.3-.5.6-2,1.9-2.5,1.4-7.7,6.4-5.9,2.1-7,1.4-.5,1.4-4.3,3.9-.7,1.7.7h2.1l1.4-1.4h2.9v-3.2h.6v.5h.2v.2Z"/>
  <path id="KAZ" class="st2" d="M483.8,192.6l-3.5,3.6-3.7.5v5.6c-.2,0-2.7,2.5-2.7,2.5l-9.1-1.8-3.3,9.9-2.3,1.1-9.1,2.3,4.1,9.7-3.1,1.4.4,3.2-2.9-.9-2.3-2-6.8-.7h-7.6l-1.7.5-6.4-2.3-2.7,1.1-.6,3.2-7.4-1.8-3.1.7-1,2.5-2.7,1.1-6,3.8-2.1,3.8h-1.7l-1.2-2.5h-5.8l-1-4.7h-2.3l.4-5.6-5.6-4.1-7.8.5-5.4.9-4.3-5-3.7-2-7-3.8-.8-.5-11.8,3.2v20.3h-2.1l-3.3-4.1-3.1-1.6-5.2,1.1-2.1,1.8v-1.4c-.2,0,.8-2.3.8-2.3l-.8-2-5.4-1.8-2.1-5-2.5-1.4v-1.8l4.3.5v-4.1l4.1-.9,3.9.9.8-5.4-.8-3.4h-4.5l-3.9-1.1-5.4,2.5-4.3,1.1-2.3-.9.4-2.9-2.9-3.6h-3.3l-3.9-3.6,2.7-4.3-1.2-1.1,3.7-6.1,4.7,3.2.6-4.1,9.5-6.1h7.2l10.1,3.6,5.4,2.3,4.7-2.3h7.2l5.8,2.7,1.2-1.6h6.4l1.2-2.5-7.4-3.8,4.3-2.7-.8-1.6,4.3-1.4-3.3-3.8,2.1-1.8,17.1-2,2.3-1.4,11.4-2,4.1-2.3,8.3,1.1,1.4,5.6,4.7-1.4,5.8,1.8-.4,2.9h4.3l11.4-5.4-1.7,1.8,5.8,4.3,10.1,14,2.5-2.9,6.4,3.2,6.6-1.4,2.5.9,2.3,3.2,3.1,1.1,2.1,2.3,5.8-.7,2.5,3.4v.9h.4,0Z"/>
  <path id="UZB" class="st2" d="M340.1,236.3v-20.3l11.6-3.2.8.5,7,3.8,3.7,2,4.3,5,5.4-.9,7.8-.5,5.6,4.1-.4,5.6h2.3l1,4.5h5.8l1.2,2.7h1.7l2.1-4.1,6-3.8,2.7-1.1,1.4.5-3.9,3.6,3.3,2,3.3-1.4,5.4,2.9-5.8,4.1-3.5-.5h-1.9l-.6-1.4,1-2.5-6.2,1.4-1.4,3.6-2.3,2.9h-3.7l-1.2,2.3,3.3,1.4,1,4.1-2.5,5.6-3.5-1.1h-2.5v-3.4l-6.2-2.5-4.7-2.7-2.9-2.5-5.2-3.8-2.3-5.6-1.4-.9h-5l-1.9-.9-.4-4.5-6.2-2.9-3.9,3.2-3.9,1.8.8,2.7h-5.2v.2h.1Z"/>
  <g id="PNG">
    <path class="st2" d="M729.2,479l8.1,3.8,8.5,3.2,3.1,2.9,2.5,2.7.6,3.2,7.6,3.4,1,2.9-4.1.7,1,3.6,4.1,3.6,2.9,5.9h2.7v2.3l3.5.9-1.4,1.1,5,2.3-.4,1.6-3.1.5-1-1.4-3.9-.7-4.5-.9-3.5-3.6-2.7-2.9-2.5-4.7-6-2.5-3.9,1.6-2.7,1.8.6,4.1-3.5,1.8-2.5-.9h-4.7v-36.3h-.6v.2l-.2-.2h0Z"/>
    <path class="st2" d="M782.5,484.6l1.7,1.8.6,2.9-1.4,1.6-.8-3.2-1-2.3-2.1-1.8-2.7-2.5-3.3-1.6,1.2-1.4,2.5,1.6,1.7,1.1,1.9,1.4,1.9,2.3h-.2Z"/>
    <path class="st2" d="M776.3,496.8l-2.5,1.4-2.3,1.4h-2.5l-3.7-1.6-2.7-1.6.4-1.8,4.1.9,2.5-.5.6-2.7h.6l.4,2.7,2.7-.5,1.2-1.8,2.5-2-.4-3.2h2.7l.8.9v3.2l-1.7,3.4-2.5.5-.6,1.6h.2v-.2h.2Z"/>
    <path class="st2" d="M792.2,494.1l1.4,1.4,2.3,3.6,2.1,1.8-.6,1.6-1.2.5-2.1-2-2.1-3.6-1-4.3.6-.5.4,1.6h.2,0Z"/>
  </g>
  <g id="IDN">
    <path class="st2" d="M729.2,479v36.1l-4.1-4.5-4.5-1.1-1.2,1.6h-5.8l1.9-4.3,2.9-1.6-1.2-6.1-2.3-4.7-8.9-4.7-3.7-.5-6.8-5.2-1.4,2.7-1.7.5-1-2v-2.5l-3.5-2.7,5-2h3.3l-.4-1.4h-6.6l-1.9-3.4-4.1-1.1-1.9-2.7,6.2-1.4,2.3-1.8,7.4,2.3.6,2,1.2,9,4.7,3.4,3.9-5.9,5.2-3.4h4.1l3.9,2,3.3,2,5,1.1h.2v.2h-.1Z"/>
    <path class="st2" d="M656,513.7l.4,1.1v1.6l-2.9,4.1-3.9,1.1-.6-.7.4-1.8,2.1-3.4,4.5-2.3h0v.2h0Z"/>
    <path class="st2" d="M698.3,502.7l-.4-4.1.8-2,1-1.8,1,1.6v2.7l-2.3,3.8h0l-.2-.2h.1Z"/>
    <path class="st2" d="M623.5,441.5l-2.7,5,3.3,5.2-.8,2.5,5.2,5.2-5.4.7-1.4,3.8v5c.2,0-4.1,3.8-4.1,3.8v5.4l-1.9,8.3-.6-2-5.2,2.5-1.9-3.4h-3.3c0-.2-2.3-2-2.3-2l-5.4,2-1.7-2.7h-3.1c0,.2-3.7-.2-3.7-.2l-.6-7.4-2.3-1.6-2.3-4.7-.6-4.7.6-5.2,2.7-3.6.8,3.6,3.1,3.2,2.9-1.1,2.9.5,2.7-2.7,2.3-.5,4.3,1.6,3.7-1.1,2.3-7.7,1.9-2,1.7-6.3h5.2l3.9.9h-.2v-.3h0Z"/>
    <path class="st2" d="M676,479.9l5,1.6,1.7,4.3-3.9-2.3-3.9-.5-2.5.5h-3.1l1-3.2h5.6v-.5h.2,0Z"/>
    <path class="st2" d="M664.6,485.5l-3.1-1.1-.8-2.5h4.5c0-.2,1,1.6,1,1.6l-1.7,1.8h0v.2h0Z"/>
    <path class="st2" d="M669.4,452.4l.4,2.9,2.7.5.4,2.3v4.7c-.2,0-2.7-.5-2.7-.5l-.6,3.4,1.9,2.9-1.2.7-1.9-3.6-1.4-7,.8-4.5,1.4-2h0l.2.2h0Z"/>
    <path class="st2" d="M646.5,459.6h5.2l4.5-4.3.8,1.4-3.7,5.4-3.5,1.1-4.3-1.1h-7.6c0,.2-3.9,1.1-3.9,1.1l-.6,4.3,4.1,5,2.5-2.5,8.5-1.8-.4,2.5-2.1-.9-2.1,3.2-3.9,2.3,4.3,7-.8,1.8,4.1,6.3v3.6l-2.5,1.6-1.9-2,2.3-4.5-4.5,2.3-1-1.6.6-2-3.3-3.2.4-5.4-3.1,1.6.4,6.5v7.9l-2.7.9-2.1-1.6,1.2-5.2-.6-5.4h-1.9l-1.4-3.8,1.9-3.6.6-4.3,2.3-8.3,1-2.3,3.9-4.1,3.5,1.6,5.8.7h0v-.2Z"/>
    <path class="st2" d="M634.5,521.1l-6-3.8,4.3-1.1,2.5,1.8,1.7,1.6v1.6h-2.5Z"/>
    <path class="st2" d="M639.2,511.7l3.1-.5,4.1-2-.6,3.2-6.8,1.6-6.2-.7v-2l3.7-1.1,2.9,1.6h-.2Z"/>
    <path class="st2" d="M625.2,510.8l2.9-.5,1,2.3-5.4,1.1-3.1.7h-2.5l1.7-3.2h2.5l1.2-2,1.7,1.6h0Z"/>
    <path class="st2" d="M580.4,499.9l.6,2,8.7.5,1-2.3,8.5,2.7,1.7,3.6,6.8.9,5.6,3.4-5.2,2-5-2.3h-8.9c0-.2-4.3-1.1-4.3-1.1l-5.4-2-3.3-.5-1.9.7-8.5-2.3-.8-2.5-4.1-.5,3.1-5.2h5.6c0,.2,3.7,2.5,3.7,2.5l1.9.5h.2v-.2h0Z"/>
    <path class="st2" d="M561.6,470.4l.8,3.8,1.7,3.2,3.3.5,2.3,3.4-1.2,7v8.6h-5.2l-3.9-4.5-5.8-4.5-2.1-3.4-3.5-4.5-2.3-4.1-3.5-7.7-3.9-4.5-1.4-4.7-1.7-4.3-4.1-3.4-2.5-4.7-3.5-3.2-4.7-6.1-.4-2.7h2.9l7,1.4,4.1,5.4,3.5,3.8,2.5,2.3,4.3,5.9h4.5l3.9,3.8,2.7,4.7,3.5,2.5-1.9,4.5,2.7,2h1.7v-.5h.2Z"/>
  </g>
  <path id="COD" class="st2" d="M218.3,489.3l.8,5.2-.4,2.9,1,3.2,2.7,3.2,2.5,7-1.9-.7-6.2.9-1.2.7-1.2,3.6,1,2.5-.8,6.5-.6,5.6,1.2.9,3.3,2.3,1.2-.9.4,5.9h-3.5l-1.9-3.2-1.7-2.3-3.5-.7-1-2.9-2.9,1.8-3.7-.7-1.4-2.5-2.9-.5h-2.1v-1.6h-1.9l-2.1-.5-2.9.9h-2.1l-1.2.5v-6.5l-1.2-2-.4-3.4.6-3.4-.8-2v-3.4h-5.6l.4-2h-2.3v.9h-3.1l-1.2,3.2-.6,1.4-2.5-.7-1.4.7-3.1.5-1.9-2.9-1-1.8-1.2-3.4-1-4.1h-13.4l-1.7.7h-1.2l-1.9.7-.6-1.8,1.2-.7v-2.5l.8-1.4,1.7-1.1,1.2.7,1.7-2h2.5v1.6l1.9.9,2.7-3.4,2.7-2.7,1.2-1.8v-4.5l1.9-5.4,2.1-2.9,3.1-2.7.6-1.8v-2l.8-2v-3.2l.4-5,.8-3.4,1.4-2.9v-3.4l.6-3.8,1.9-2.7,2.5-1.8,3.7,1.8,2.9,2,3.3.5,3.3,1.1,1.4-3.4.6-.5,2.1.7,5.2-2.7,1.9,1.1h1.4l.6-1.6,1.7-.5,3.5.7h2.9l1.4-.5,2.7,4.5,2.1.7,1.2-.9,2.1.5,2.5-1.1,1,2.5,4.1,3.6v6.5l1.7.7-1.4,2-1.9,1.6-1.9,2.9-1,2.5v4.5l-1.2,2v4.1l-1.4,1.6v3.4l-.8.5-.4,2.9,1.2,2.5v6.8-.7h0v-.2h-.1Z"/>
  <path id="KEN" class="st2" d="M263.5,490.2l-6.6-5.6v-3.2l-16.9-11.3-.8-.7v-5.9l1.2-2.3,2.3-3.6,1.7-4.1-2.1-6.3-.6-2.7-2.1-3.8,2.9-3.4,3.1-3.6,2.5.9v3.2l1.7,1.8h3.3l5.8,4.7h2.5l1,.7,3.1.5,1.4-2.3,4.1-2.3,1.9,1.8h3.1l-3.9,6.3v20.1l2.7,4.5-3.1,2.3-1.2,2.3-1.7.5-.6,3.8-1.4,2.3-.8,3.6-1.9,1.8h-.6,0Z"/>
  <path id="SDN" class="st2" d="M196.4,418.5l-3.5-2.5-1.7-1.6v-1.8l.4-2.3v-2.3l-2.7-3.4-.4-2.5v-1.4l-1.7-1.6v-3.2l-1-2.3h-1.7c0,.2.4-1.8.4-1.8l1.2-2.3-.4-2.3,1.4-1.8-1-1.4,1.2-3.4,2.1-4.1,3.9.5v-24.1h5.4v-11h54.3l1.4,5.4-1,.9.6,5.6,1.7,6.5,1.9,1.4,2.5,2-2.3,3.2-3.3.9-1.4,1.8-.4,3.6-2.1,8.1.4,2.3-.8,4.7-1.9,5.4-2.7,2.7-2.1,4.3-.4,2.3-2.1,1.6-1.4,5.9v5-4.3h-.6v-2.9l-.6-1.8-2.3-2.3-.6-4.1.6-4.1-2.1-.5v1.4l-3.1.2,1,1.6.4,3.4-2.5,2.9-2.3,4.1-2.3.7-3.9-3.2-1.7,1.1-.4,1.6-2.3,1.1v1.1h-4.7l-.6-1.1h-3.3l-1.7.7-1.2-.5-2.3-3.2-.8-1.6-3.3.7-1.2,2.5-1.2,5-1.7,1.1-1.4.7,3.1,2.3.2.4h0Z"/>
  <path id="TCD" class="st2" d="M193.1,356.3v21.9l-3.7-.5-2.1,4.1-1.2,3.4,1,1.4-1.4,1.8.4,2.3-1.2,2.3-.4,2h1.7c0-.2,1,1.8,1,1.8v3.2l1.7,1.6v1.4l-2.9.9-2.3,2.3-3.3,6.1-4.3,2.5-4.3-.5-1.2.5.4,2-2.5,2-1.9,2.3-5.8,2-1-1.4h-.8l-.8,1.4-3.7.5.8-1.6-1.4-3.8-.6-2.3-2.1-.9-2.7-3.2,1-2.7,2.1.5,1.2-.5h2.5l-2.5-5v-7.2l-1.9-3.6.4-2.7h-2.9v-3.6l-1.9-2,2.1-7.2,5.8-5.2v-7.2l2.1-11.3,1-2.5-1.9-1.8v-1.8l-1.9-1.4-1-8.6,4.5-2.9,18.2,10.6,18.2,10.6h-.4v.2-.2h-.1Z"/>
  <path class="st2" d="M289.3,19.2l8.9-.9h7l1,1.4,2.7-1.4,4.3-.9,6.8,1.1-1.9.9-6.2.7-4.1.5-.6.9-5.4.9-5-1.4,2.7-1.8h-10.3s.1,0,.1,0Z"/>
  <g id="SJM">
    <path class="st2" d="M153.2,24.2l1.7-1.8h6.6l5.8,1.8,15.1,4.1-11.6,2.3-2.5,4.1-4.1,1.1-2.1,4.5h-5.6l-9.9-3.2,4.1-2-6.8-1.6-8.9-4.7-3.5-4.3,12.6-2,2.5,2h6.6v-.2h0Z"/>
    <path class="st2" d="M209.4,22.1l-6.8,2.9-13.2.7-13.4-.9-.8-1.6h-6.6l-5-2.7,14-1.6,6.6,1.4,4.5-1.6,11.6,1.4,8.9,2s.2,0,.2,0Z"/>
    <path class="st2" d="M197.2,34.3l-10.3,2.3-8.1-1.4,3.1-1.4-2.7-1.8,9.5-1.1,1.9,2s6.6,1.4,6.6,1.4Z"/>
  </g>
  <path id="ATF" class="st2" d="M399.5,733.1l2.9,1.8,4.3.7v1.1l-1,2.5-7,.5v-2.9l.6-2.3.4-1.1h-.2v-.2h0Z"/>
  <path id="TLS" class="st2" d="M656,513.7l.6-1.4,3.9-1.4h3.1l1.4-.9,1.7.7-1.7,1.6-4.7,2.5-3.9,1.6v-1.6l-.6-1.1h.2Z"/>
  <path id="LSO" class="st2" d="M215.6,624.4l1.7,1.6-1.4,2.7-.8,1.8-2.5.9-.8,1.8-1.7.5-3.5-4.3,2.5-3.6,2.5-2.3,2.1-1.1,2.1,1.8h0v.2h-.2Z"/>
  <path id="ZWE" class="st2" d="M226.7,587.4l-2.5-.5-1.4.7-2.3-.9h-1.9l-2.9-2.5-3.5-.9-1.2-3.6v-2l-1.9-.7-5.2-6.1-1.4-3.2-.8-.9-1.9-4.5,5.2.7,1.4.7h1.7l2.5-3.6,3.9-4.5,1.7-.5.6-1.8,2.7-2.3,3.5-.7v2h4.1l2.1,1.1,1,1.4,2.3.5,2.3,1.8v7l-.8,3.8v4.1l.6,1.6-.4,3.2-.6.5-1.2,4.1-4.7,6.3h-.8v-.2h-.2Z"/>
  <path id="BWA" class="st2" d="M218.7,586.5l-6.4,4.1-4.1,4.1-1.4,3.6-1.4,2-2.5.5-.8,2.7-.4,1.8-2.9,1.4h-3.7c0-.2-2.3-1.8-2.3-1.8l-1.9-.7-2.3,1.4-1,2.7-2.1,1.6-2.3,2.5-3.3.5-1-2,.4-3.4-2.7-5.2-1.2-.9v-16.2h4.5v-19.8h3.3l7-2,1.7,2.3,2.9-2.3h1.4l2.5-1.4.8.5,1.9,4.5.8.9,1.4,3.2,5.2,6.1,1.9.7v2l1.2,3.6,3.5.9,2.9,2.5h.4v-.4h0Z"/>
  <path id="NAM" class="st2" d="M175.1,601.4v20.3l-4.1,2.9-2.5.5-2.9-1.1-2.1-.5-.8-2.5-1.9-1.6-2.3,2.7-3.5-4.3-1.9-4.1-1-5.4-1.2-4.1-1.4-8.6v-6.5l-.6-2.9-1.9-2.3-2.3-4.5-2.5-6.5-1-3.4-3.7-5.4v-4.3l1.9-1.1,2.7-.9h2.9l2.7,2.7.6-.5h18.6c0-.2,3.1,2.5,3.1,2.5l11.1.7,8.5-2.3,3.7-1.4h2.9c0,.2,1.9,1.6,1.9,1.6v.5l-2.5,1.4h-1.4l-2.9,2.3-1.7-2.3-7,2h-3.3v19.8h-4.5v16.2h.4v.4h-.1Z"/>
  <path id="SEN" class="st2" d="M7.5,389.5l-1.9-4.3-2.3-2,2.1-1.1,2.3-3.8,1-2.9,1.7-1.8,2.3.5,2.3-1.1h2.5l2.3,1.6,3.1,1.6,2.7,4.1,3.1,3.8v3.4c.2,0,1,3.2,1,3.2l1.7,1.6.4,2.3v1.8h-.8c0,.2-2.5,0-2.5,0l-.4.7h-1l-3.3-1.1h-10.7c0-.2-1.2.5-1.2.5h-1.4l-2.5.7-.8-4.3h4.1l1-.7h.8l1.7-1.4,2.1,1.1h2.1l2.1-1.1-1-1.6-1.4.9h-1.4l-1.9-1.4h-1.4l-1,1.4h-5v-.2l-.5-.4h0Z"/>
  <path id="MLI" class="st2" d="M31.2,395.8v-4.1l-1.7-1.6-.8-3.2v-3.4c-.2,0,1.2-.9,1.2-.9l.8-3.2h1.4l3.3,1.4,2.5-1.1,1.9.5.6-1.1h18.4l1-4.1-.8-.7-2.3-23.9-2.3-23.9h7l15.5,12,15.5,12.2,1,2.5,2.9,1.6,2.1.9v3.6l5.2-.5v12.6l-2.5,3.6-.4,3.4-4.1.9-6.2.5-1.7,2h-5.8c0,.2-1.2-.9-1.2-.9l-2.5.7-4.3,2.3-.8,1.8-3.5,2.5-.6,1.4-1.9,1.1-2.3-.7-1.2,1.4-.6,3.8-3.7,4.5v1.8l-1.2,2.3v3.2c.2,0-1.7.9-1.7.9l-1,.7-.6-2.3-1.2.7h-.8l-.8,1.6h-3.5l-1.2-.9-.6.5-1.4-1.6v-1.6c.2,0-.4-.7-.4-.7l-1,.5v-1.8l1-1.4-1.9-2.3-.6-1.6-1-1.1h-.8l-1,.7-1.4.7-1.2,1.1-2.1-.5-1.2-1.4h-.8l-1.2.5h-.8v-2h-.2v.2h-.5Z"/>
  <path id="MRT" class="st2" d="M5.8,348.4l1-1.8h18l-.8-7.9,1-2.9,4.3-.5v-14.2h14.9c0,.2,0-8.1,0-8.1l17.3,13.3h-7l2.3,23.9,2.3,23.9.8.7-1,3.8h-18.4l-.6,1.4-1.9-.5-2.5,1.1-3.3-1.6h-1.4l-.8,3.4-1.7.9-3.1-3.8-2.7-4.1-3.1-1.6-2.3-1.6h-2.5l-2.3,1.4-2.3-.5-1.7,1.8-.4-2.9,1.2-2.7.6-5.2-.4-5.4-.6-2.7.4-2.7-1.2-2.7-2.5-2.5h.2v.2h.2Z"/>
  <path id="BEN" class="st2" d="M96.2,429.8l-3.7.7-1-3.8v-12.6l-.8-1.1v-2.7l-1.7-2-1.4-1.6.6-2.9,1.7-.7.8-2.5,2.3-.5,1-1.6,1.4-1.6h1.7l3.5,3.2v1.8l.8,3.4-.8,2.3.4,1.6-2.3,3.4-1.4,1.8-.8,3.4v12.4h0l-.2-.2v-.2h0Z"/>
  <path id="NER" class="st2" d="M152,338l1,8.6,1.7,1.4v1.8l2.1,1.8-1,2.5-1.7,11.3v7.2l-6.2,5.2-2.1,7.2,1.9,2v3.6h2.9l-.4,2.7h-1.2v2h-.8l-3.1-5.9h-1l-3.5,2.9-3.5-1.6h-2.5c0-.2-1.2.5-1.2.5h-2.7l-2.7,2.3h-2.3l-5.6-2.7-2.1,1.4h-2.3l-1.7-2.3-4.5-2-5,.7-1.2,1.1-.6,3.2-1.2,2.3-.4,5-3.5-3.2h-1.7l-1.4,1.6v-3.8l-5.2-1.4v-2.7l-2.7-3.6-.6-2.5.4-2.7h2.9l1.7-2.3,6.2-.5,4.1-.9.4-3.4,2.5-3.6v-12.6l6.4-2.5,13.2-10.8,15.7-10.6,7.2,2.5,2.5,2.9,3.3-2h-.5Z"/>
  <path id="CMR" class="st2" d="M150.3,393.5l1.9,3.6v7.2l2.5,5h-3.7c0,.2-2.1,0-2.1,0l-1,2.7,2.7,3.2,2.1.9.6,2.3,1.4,3.8-.8,1.6-2.3,5.6-1,.9-.4,4.3.4,2.3-.4,1.6,2.3,2.9.4,2,1.7,2.9,2.1,1.8v2.5l.6,1.6-.4,2.9-3.7-1.4-3.7-1.6h-5.8l-.6-.5-2.7.7-2.9-.7-2.1.5h-7.4l.6-4.5-1.9-3.6-2.1-.9-1-2.5-1.2-.9v-1.6l1.2-3.8,2.3-5.4h1.2l2.7-3.4h1.7l2.5,2.3,3.1-1.8.4-2.3,1-2.3.8-2.7,2.5-2.3,1-3.8,1-1.4.6-2.9,1.2-3.6,3.9-4.3v-1.8l.8-.9-1.9-2.3v-1.8h1.4c0-.2.4,0,.4,0v-.2h.1,0Z"/>
  <path id="TGO" class="st2" d="M88,403.7l-.6,2.9,1.4,1.6,1.7,2v2.7l1,1.1v12.6l.8,3.8-3.7,1.1-1-2-1.2-3.4-.4-2.7,1-5-1.2-2-.4-4.3v-4.1l-1.9-2.9.4-1.8h4.1v.4h0Z"/>
  <path id="GHA" class="st2" d="M84.1,403.7l-.4,1.8,1.9,2.9v4.1l.4,4.3,1.2,2-1,5,.4,2.7,1.2,3.4,1,2-7.2,3.2-2.5,1.8-4.1,1.6-4.1-1.6v-2.3l-1.9-4.7,1.2-6.3,1.9-4.7-1.2-7.9-.6-4.1v-3.2h8.1c0-.2,2.1,0,2.1,0l1.4-.9,2.1.5h0l.2.5h0Z"/>
  <path id="CIV" class="st2" d="M47.3,408.2l.6-.5,1.2.9h3.5l.8-1.6h.8l1.2-.5.6,2.3,1-.7,1.9-.9,2.1,1.1.8,1.8,2.1,1.1,1.7-1.4h2.1l3.1,1.1,1.2,7.9-1.9,4.7-1.2,6.3,2.1,4.7v2.3h-2.3l-3.3-1.1h-2.9l-5.4,1.1-3.1,1.6-4.5,2h-.8l.4-4.7.4-.7v-2.3l-2.1-2.3-1.4-.5-1.2-1.6,1-2.5-.4-2.7v-1.6h1v-2.5c.2,0,0-1.1,0-1.1l.4-.7,1.7-.7-1.2-4.5-1-2.3.4-1.8.8-.5h0l-.2.2v.6h0Z"/>
  <path id="GIN" class="st2" d="M21.3,394.9h2.3l3.3,1.4h1l.4-.7,2.5.5h.6c0-.2.2,1.8.2,1.8h.8l1.2-.7h.8l1.2,1.6,2.1.5,1.2-1.1,1.4-.7,1-.7h.8l1,1.4.6,1.6,1.9,2.3-.8,1.4v1.8l.8-.5.6.7v1.6c-.2,0,1.2,1.6,1.2,1.6l-.8.5-.4,1.8,1,2.3,1.2,4.5-1.7.7-.4.7.4,1.1v2.5h-2.3l-1,2h-1.2l-.8-1.1v-2.3c.2,0-1.7-3.4-1.7-3.4l-1.2.7h-1l-1.2.5v-2l-.6-1.4v-1.6l-.8-2.3-1.2-2h-3.7l-1,1.1h-1.2l-.8,1.4-.6,1.6-2.5,2.5-2.1-3.2-1.9-2.3-1.2-.7-1.2-1.1-.4-2.5-.6-1.1-1.2-.9,2.1-2.7h1.4l1.2-.9h1l.8-.7-.4-1.8.4-.7v-1.8l-.6-.9h0v-.3h.1Z"/>
  <path id="GNB" class="st2" d="M7.7,397l2.5-.9h1.4l1.2-.5h8.5v2l-.4.7.4,1.8-.8.7h-1l-1.2.9h-1.4l-2.1,2.5-2.5-2.3-1.9-.5-1-1.6v-.9l-1.4-1.1v-1.1h-.2v.2h0Z"/>
  <path id="LBR" class="st2" d="M45.3,421.9v1.6c-.2,0,.2,2.7.2,2.7l-1,2.5,1.2,1.6,1.4.5,1.9,2.3v2.9c-.2,0-.6,4.5-.6,4.5h-1.2l-4.7-2.5-4.1-4.3-3.9-2.9-3.1-3.6,1-1.8v-1.6c.2,0,2.3-2.9,2.3-2.9l2.1-2.5h1l1.2-.7,1.9,3.4v2.3c-.2,0,.6,1.1.6,1.1h1.2l1-2.3h1.7v-.2h-.1Z"/>
  <path id="SLE" class="st2" d="M23.4,415.4l2.5-2.5.6-1.6.8-1.1h1.2l1-1.1h3.7l1.2,2,1,2.3v1.6l.6,1.4v2h1.2c0-.2-2.1,2.3-2.1,2.3l-2.1,2.9v1.6c-.2,0-1.2,1.8-1.2,1.8l-1.2-.5-3.3-2.3-2.5-2.9-.8-2-.6-4.1h0l-.2.2h.2,0Z"/>
  <path id="BFA" class="st2" d="M59.3,407.3v-3.2c-.2,0,1-2.3,1-2.3v-1.8l3.5-4.5.6-3.8,1.2-1.4,2.3.7,1.9-1.1.6-1.4,3.5-2.5.8-1.8,4.3-2.3,2.5-.7,1.2,1.1h2.9l-.4,2.7.6,2.5,2.5,3.6v2.7l5.4,1.4v3.8l-1,1.6-2.3.5-.8,2.5-1.7.7h-3.9l-2.1-.7-1.4.9-2.1-.5h-7.8v3.4l.6,4.1-3.1-1.4h-2.1l-1.7,1.6-2.1-1.1-.8-1.8-2.1-1.1v-.5h-.2.2,0Z"/>
  <path id="CAF" class="st2" d="M209.2,435.5l-1.4.7h-2.9l-3.5-.7-1.7.5-.6,1.4h-1.4l-1.9-.9-5.2,2.7-2.1-.7-.6.5-1.4,3.4-3.3-1.1-3.3-.5-2.9-2-3.7-1.8-2.5,1.8-1.9,2.7-.4,3.8h-2.9c0-.2-3.1-1.4-3.1-1.4l-2.7,2.9-2.5,5.2-.4-1.6v-2.5l-2.3-1.8-1.7-2.9-.4-2-2.3-2.9.4-1.6-.4-2.3.4-4.3,1-.9,2.3-5.6,3.7-.5.8-1.4h.8l1,1.4,5.8-2,1.9-2.3,2.5-2-.4-2,1.2-.5,4.3.5,4.3-2.5,3.3-6.1,2.3-2.3,2.9-.9.4,2.5,2.7,3.4v2.3l-.8,2.3v1.8l1.9,1.6,3.5,2.5,2.5,2.3v1.8l3.1,2.9,1.9,2.5,1.2,3.4,3.3,2.3.8,1.8v-.7h.2l.2-.2h0Z"/>
  <path id="COG" class="st2" d="M168.5,445.2v3.4l-1.7,2.9-.8,3.4-.6,5v3.2l-.4,2v2l-.6,1.8-3.1,2.7-2.1,2.9-2.1,5.4v4.5l-1,1.8-2.7,2.7-2.7,3.4-1.7-.9v-1.6h-2.9l-1.7,2-1.2-.7-1.7-1.8-1.4.9-1.9,2.5-3.7-5.9,3.5-2.9-1.7-3.6,1.7-1.4,3.1-.7.4-2.5,2.5,2.7h4.1l1.4-2.5.6-3.6-.4-4.3-2.1-3.2,2.1-6.3-1.2-1.1-3.3.5-1.2-2.9.4-2.5h5.8l3.7,1.6,3.7,1.4.4-2.9,2.5-5.2,2.7-2.9,3.1.9h2.9-.8v-.2h0Z"/>
  <path id="GAB" class="st2" d="M135.7,451.9l2.1-.5,2.9.7,2.7-.7h.6c0,.2-.4,2.7-.4,2.7l1.2,2.9,3.3-.5,1.2,1.1-2.1,6.3,2.1,3.2.4,4.3-.6,3.6-1.4,2.7h-4.1l-2.5-2.9-.4,2.5-3.1.7-1.7,1.4,1.7,3.6-3.5,2.9-4.7-5.6-3.1-4.5-2.9-5.6v-1.8l1.2-1.8,1-4.1.8-4.1h1.7c0-.2,6.6-.2,6.6-.2v-6.8l1,.5h0Z"/>
  <path id="GNQ" class="st2" d="M128,451.9h7.4v6.8h-8.3c0,.2-.8-.7-.8-.7l1.7-6.3h0v.2h0Z"/>
  <path id="ZMB" class="st2" d="M224.7,510.5l1.9,1.4,1.9.9,2.9.9,2.7,1.6,2.1,2.5,1.2,4.7-.8,1.6-1,4.5.8,4.5-1.4,2-1.4,5.2,2.5,1.4-13.8,4.5.4,3.8-3.5.7-2.7,2.3-.6,1.8-1.7.5-3.9,4.5-2.5,3.6h-1.7l-1.4-.5-5.2-.7-.8-.5v-.5l-1.9-1.4h-2.9c0-.2-3.7.9-3.7.9l-2.9-3.4-3.1-4.5v-17.6h9.7l-.4-1.8.6-2-.8-2.5.4-2.7-.4-1.8h1.7v1.8h2.3l2.9.5,1.4,2.5,3.7.7,2.9-1.8,1,2.9,3.5.7,1.7,2.3,1.9,2.9h3.5l-.4-5.9-1.2.9-3.3-2.3-1.2-.9.6-5.6.8-6.5-1-2.5,1.2-3.6,1.2-.7,6.2-.9,1.9.7.4.9h-.3,0Z"/>
  <path id="MWI" class="st2" d="M233,514.5l4.5,1.1.8,1.6,1.7,2.5,1.2,7.4-1.2,4.3,1.2,7.2h1.7l1.7,1.8,1.9,4.1.4,7.2-2.1,1.1-1.4,3.8-3.1-3.4-.4-3.8,1-2.5v-2.3l-2.1-1.4-1.2.5-2.7-2.7-2.5-1.4,1.4-5.2,1.4-2-.8-4.5,1-4.5.8-1.6-1.2-4.7-2.1-2.5h0v-.2h.1Z"/>
  <path id="MOZ" class="st2" d="M242.2,528.1l3.5-.5,5.6,1.6,1.2-.7h3.1l1.7-1.8h2.7l5-2,3.7-3.2.8,2.5v5.4l.4,4.7v8.6l1,2.7-1.4,3.8-1.9,3.8-2.9,3.4-4.1,2-5.2,2.7-5.2,5.9-1.9.9-3.3,3.8-1.9,1.4-.4,3.8,2.1,4.3.8,3.2v1.6h.8c0-.2,0,5.2,0,5.2l-.8,2.5,1,.9-.6,2.3-1.9,2-3.7,1.8-5.6,2.9-2.1,2,.4,2.3,1.2.5-.4,2.9h-3.5l-.4-2.5-.6-2.5-.4-2,.8-6.1-1.2-3.8-2.3-7.7,4.7-6.3,1.2-4.1.6-.5.4-3.2-.8-1.6v-4.1l1-3.8v-7l-2.5-1.8-2.3-.5-1-1.4-2.1-1.1h-3.9v-2l-.6-3.8,13.8-4.5,2.7,2.7,1.2-.5,1.9,1.4v2.3l-.6,2.5.4,3.8,3.1,3.4,1.4-3.8,2.1-1.1-.4-7.2-1.9-4.1-1.7-1.8h-1.7l-1.2-7.2,1.2-4.3.4.9h.5,0Z"/>
  <path id="SWZ" class="st2" d="M230.7,612.2l-.8,2.5-2.7.7-2.7-2.9v-2l1.2-2,.4-1.6,1.2-.5,2.3,1.1.6,2.5.4,2.5h0v-.2h.1Z"/>
  <g id="AGO">
    <path class="st2" d="M143.5,490.9l-1.7,1.1-.8,1.4v2.5l-1.2.7-1.2-4.1,1.9-2.5,1.4-.9,1.7,1.8h0Z"/>
    <path id="_Path_" class="st2" d="M140.4,498.1l1.9-.7h1.2l1.7-.7h13.4l1,4.3,1.2,3.4,1,1.8,1.9,2.9,3.1-.5,1.4-.7,2.5.7.6-1.4,1.2-3.2h2.9v-1.1h2.5l-.4,2h5.6v3.4l.8,2-.6,3.4.4,3.4,1.4,2v6.5l.8-.5h2.1l2.9-.7h2.1c0,.2.4,2,.4,2l-.4,2.7.8,2.5-.6,2,.4,1.8h-9.5v17.6l2.9,4.5,2.9,3.4-8.5,2.3-11.1-.7-3.1-2.7h-18.6c0,.2-.6.7-.6.7l-2.7-2.5h-2.9l-2.7.7-2.3,1.1-.4-3.4.6-5,1.7-5v-2.5l1.7-5,1-2.3,2.7-3.6,1.4-2.5.4-4.1v-3.2l-1.7-2-1.2-3.4-1-3.4v-1.1l1.7-2.3-1.4-5.4-1-3.6-2.3-3.4.4-1.1h.4v.6h0Z"/>
  </g>
  <path id="BDI" class="st2" d="M223.4,477.8v2.3l1.2,1.4v1.8l-1,1.1-1.9,2.9-1.7,2h-1.9c0,.2,0-6.3,0-6.3l-1.2-2.5,2.7.5,1.4-3.2,2.5.5v-.5h-.2,0Z"/>
  <path id="ISR" class="st2" d="M247.4,283.7l-.8,1.8-1.7-.7-1,3.6,1,.7-1.2.7v1.4l1.9-.7v2.3l-2.1,8.8-.4-1.4-2.5-8.1h0l1.2-1.8h0c0-.2,1.2-2.9,1.2-2.9l1-4.1.6-1.4h1.4l.4-.9h1.2v2.3l-.6.9h0l.4-.5h-.2.2Z"/>
  <path id="LBN" class="st2" d="M248,280.5h-1.2l-.4,1.1h-1.4l1.7-4.5,2.3-3.8h2.1l.8,2.3-2.5,2-1.2,2.9h-.2Z"/>
  <path id="MDG" class="st2" d="M310.8,533.3l1.2,2.5,1,3.6.8,6.8,1.2,2.5-.4,2.7-.8,1.6-1.7-3.2-.8,1.6.8,4.1-.4,2.3-1.2,1.4v4.7c-.2,0-2.1,6.5-2.1,6.5l-2.3,7.7-2.9,10.4-1.9,7.7-2.1,6.3-3.7,1.4-3.9,2.3-2.7-1.4-3.7-2-1.2-2.9-.4-5-1.7-4.5-.4-4.1.8-4.1,2.1-.9v-1.8l2.3-4.3.4-3.6-1-2.7-.8-3.4-.4-5.2,1.7-3.2.6-3.6h2.3l2.5-1.4,1.7-.9h2.1l2.7-3.2,3.7-3.4,1.4-2.7-.6-2.5,1.9.7,2.5-3.8v-3.4l1.7-2.5,1.7,2.5v.5h.2-.2Z"/>
  <path id="PSE" class="st2" d="M245.9,290.5l-2.1.7v-1.4l1.4-.7-1-.7,1-3.6,1.7.7v3.4l-.6,1.6h-.4,0Z"/>
  <path id="GMB" class="st2" d="M7.5,390.5h5l1-1.6h1.4l1.9,1.4h1.4l1.4-.9,1,1.6-2.1,1.1h-2.1l-2.1-1.4-1.7,1.4h-.8l-1,.9h-4.1l.6-2.5h.2Z"/>
  <path id="TUN" class="st2" d="M127.4,297l-1.9-9.9-2.9-2.3v-1.4l-3.7-3.4-.4-4.1,2.9-3.2,1-4.5-.8-5.2,1-2.7,5-2.3,3.3.7v2.7l3.7-2,.4,1.1-2.3,2.7v2.5l1.7,1.4-.6,4.7-3.1,2.7.8,2.9h2.3l1,2.7,1.9.9v4.3l-2.5,1.6-1.4,1.8-3.1,2,.4,2.3-.4,2.3-2.3,1.4h0v.2h0Z"/>
  <path id="DZA" class="st2" d="M44.2,313v-8.1l7.4-4.1,4.5-.9,3.7-1.6,1.9-2.7,5.4-2.3v-4.1l2.9-.5,2.1-2,6-.9.8-2.3-1.2-1.1-1.7-5.9v-3.4l-2.1-3.6,4.3-2.9,5-.9,2.9-2.3,4.3-1.8,7.8-.9,7.6-.5,2.3.9,4.3-2.3h5l1.9,1.4h3.1l-1,2.5.8,5.2-1,4.5-2.9,3.2.4,4.1,3.7,3.4v1.4l2.9,2.3,1.9,9.9,1.4,5v2.5l-.6,4.5.4,2.5-.6,2.9.4,3.4-1.9,2.3,2.7,4.1v2.5l1.9,3.2,2.1-.9,3.7,2.5,2.1,3.4-15.7,10.6-13.2,10.8-6.4,2.5-5.2.5v-3.6l-2.1-.9-2.9-1.6-1-2.5-15.5-12.2-15.5-12.2-17.1-13.3v.5h0v-.2h0Z"/>
  <path id="JOR" class="st2" d="M246.5,285.5l.8-1.8,5.2,2.3,8.9-5.9,1.9,6.8-.8.9-9.1,2.7,4.5,5.6-1.4.9-.8,1.8-3.5.7-1,2-2.1,1.8-5.2-.9v-.9l2.1-8.8v-2.3l.6-1.6v-3.4h-.1Z"/>
  <path id="QAT" class="st2" d="M316.5,327.7l-.4-4.1,1.2-2.9,1.2-.7,1.4,1.8v3.2l-1,3.2-1.2.5-1.4-1.1h0l.2.2h0Z"/>
  <path id="KWT" class="st2" d="M303.5,298.8l1,2.5-.4,1.4,1.4,4.1h-3.3l-1-2.5-4.1-.5,3.3-5.4,3.1.5h0Z"/>
  <path id="IRQ" class="st2" d="M263.3,286.9l-1.9-6.8,10.1-5.6,1.7-6.8-.4-4.1,2.5-1.4,2.3-3.4,2.1-.9,5.4.7,1.7,1.4,2.3-.9,2.9,6.5,3.1,1.6.4,3.2-2.3,2-1,4.3,3.1,5.2,5.6,2.9,2.3,4.3-.8,4.1h1.4v2.9l2.5,2.9h-2.7c0-.2-3.1-.7-3.1-.7l-3.3,5.4-8.5-.5-12.8-11-6.8-3.8-5.6-1.6h-.2Z"/>
  <g id="OMN">
    <path class="st2" d="M335.5,338.9v-2.3l1.4-2.3v-2.3l2.1-1.1-.8-.7.4-3.6h2.3l2.1,3.8,2.5,2,3.3.7,2.7,1.1,2.1,3.2,1.2,1.8,1.7.7v1.4l-1.7,3.4-.8,1.6-1.9,1.8-1.7,3.8h-2.1c0-.2-1,1.1-1,1.1l-.6,2.7.6,3.6-.4.7h-2.1l-2.9,2-.4,2.7-1,1.1h-2.9l-1.9,1.4v2.3l-2.3,1.6-2.5-.5-3.1,1.8h-2.1c0,.2-1.4-3.6-1.4-3.6l-3.5-9,13.6-5.6,3.1-11-2.1-3.8v-.5h0Z"/>
    <path class="st2" d="M341.5,322.5l-.8-1.8,1.4-1.8.6.5-.4,2.3-.6.9h-.2Z"/>
  </g>
  <g id="VUT">
    <path class="st2" d="M849.2,552.3l2.9,3.2-1.4.7-1.7-2.5v-1.6h.2v.2h0Z"/>
    <path class="st2" d="M847.3,551.1l-.6-1.6v-4.3l2.1,1.8.8,4.5-1.2-.7h-1v.2h0Z"/>
  </g>
  <path id="KHM" class="st2" d="M553.6,397.1l-1-6.8,2.9-4.5,6-1.1,4.3.7,3.7,2.3,2.1-3.8,4.1,2,1,3.6-.6,6.5-7.6,4.3,2.1,3.4-4.7.5-3.9,2.3-3.9-.9-1.9-2.9-2.3-5.6h-.2v.2-.2h0Z"/>
  <path id="LAO" class="st2" d="M575.4,386.1l-4.1-2-2.1,3.8-3.7-2.3,1.4-2.5v-4.7l-3.5-4.7v-5.4c-.2,0-3.7-4.5-3.7-4.5l-3.5-.5-1,2h-2.7l-1.4-.9-4.7,3.4v-5l1-5.9h-3.1c0-.2-.2-3.6-.2-3.6l-2.1-1.8,1-2,3.9-3.6.4,1.4h2.5l-.6-6.1,2.3-.9,2.7,4.3,2.1,5h5.6l1.9,5-2.9,1.4-1.2,2,5.6,3.4,3.7,6.5,2.9,5,3.5,3.8,1,3.8-.8,5.4h0v.2h-.2Z"/>
  <path id="MMR" class="st2" d="M542.2,351.6l-2.7,1.4-2.7,2.5h-3.3c0,.2-2.1,6.3-2.1,6.3l-1.9,1.1,2.3,4.7,2.9,4.1,1.9,3.6-1.7,4.7-1.7,1.1,1,2.7,3.1,4.3.4,3.2v2.5l1.7,5-2.5,5.2-2.3,5.6-.4-4.1,1.4-4.3-1.7-3.2.4-6.1-1.9-2.9-1.4-6.5-.8-7-2.1-4.5-3.1,2.7-5.2,3.8-2.5-.5-2.9-1.4,1.7-6.8-1-5.2-3.5-6.3.6-2-2.7-.7-3.3-4.5v-4.5c-.2,0,1.2.9,1.2.9v-4.1l2.3-1.4-.4-2.3,1-1.8v-5.6l3.7,1.4,2.1-4.5v-2.7c.2,0,2.7-4.7,2.7-4.7v-3.2l5.8-3.8,3.3.9-.4-3.4,1.7-.9-.4-2,2.7-.5,1.4,3.2,2.1,1.4v8.8l-4.3,4.5-.6,6.5,4.7-.9,1,5.2,2.9,1.1-1.4,4.5,3.5,2,2.1.9,3.3-1.6v2.3l-3.7,3.6-1,2h.6v.2h.1Z"/>
  <path id="VNM" class="st2" d="M561.4,406.6l3.9-2.3,4.7-.5-2.1-3.4,7.6-4.3.6-6.5-1-3.6.8-5.4-1-3.8-3.5-3.8-2.9-5-3.7-6.5-5.6-3.4,1.2-2,2.9-1.4-1.9-4.7h-5.6l-2.1-5-2.7-4.3,2.5-1.4h3.7l4.5-.7,3.9-2.9,2.3,2,4.1,1.1-.8,3.2,2.3,2.3,4.5,1.4-6.2,4.7-3.7,5.2-1,3.8,3.5,5.9,4.3,7.2,4.1,3.4,2.7,4.5,2.1,10.1-.6,9.7-3.7,3.6-5.2,3.6-3.7,4.5-5.8,5.2-1.7-3.6,1.2-3.8-3.3-3.2h.4Z"/>
  <path id="PRK" class="st2" d="M681.8,230.3h0l.6.9-1.9-.5-2.1,1.8-1.4,1.8v4.1l-2.3,1.1-.8.9-1.7,1.6-3.1.9-2.1,1.6v2.5l-.6.7,1.9.9,2.7,2.5-.6,1.4-1.9.5h-3.3l-1.9,2.7h-2.3l-2.3-.9-.6,1.1-1.4.5v-1.1l-1.4-.5-1.2-.9,1.2-2.5,1-.7-.4-.9,1.2-2.9v-.9c-.2,0-2.9-.7-2.9-.7l-2.1-1.6,3.7-3.6,5-2.9,3.1-3.8,2.3,1.8h3.9l-.8-2.7,7-2.5,1.9-3.2,2.9,3.2.6.5h0v-.2h0Z"/>
  <path id="MNG" class="st2" d="M485.6,192.1l4.7-.9,8.7-4.7,7-2.5,3.9,1.8h4.7l3.1,2.7h4.5l6.6,1.6,4.5-3.8-1.9-3.2,4.7-5.6,5.2,2.3,4.1.7,5.4,1.4.8,4.1,6.6,2.3,4.3-1.1,5.8-.7,4.5.7,4.5,2.7,2.7,2.7h4.3l5.8.9,4.1-1.4,6-.9,6.6-3.8,2.7.7,2.5,1.8,5.6-.5-2.3,4.1-3.3,5.4,1.2,2.3,2.7-.7,4.5.9,3.5-2,3.7,1.8,4.1,3.8-.4,2-3.7-.7-6.6.7-3.3,1.6-3.3,3.6-7,2.3-4.5,2.9-4.7-1.1-2.5-.5-2.5,3.6,1.4,2,.8,1.8-3.1,1.8-3.3,2.9-5.4,2h-6.8l-7.4,2.3-5.4,2.9-2.1-1.8h-5.6l-6.8-3.4-4.5-.9-6,.7-9.5-1.4h-5.2l-2.7-3.2-2.1-5.2-2.9-.7-5.6-3.4-6.2-.7-5.4-.9-1.7-2.5,1.9-6.5-3.1-4.5-6.6-2-3.9-2.9-1.2-3.8h.2v.2h.6Z"/>
  <path id="IND" class="st2" d="M529.4,308.3l.4,2-1.7.9.4,3.4-3.3-.9-6,3.8v3.2l-2.5,4.7v2.7c-.2,0-2.3,4.5-2.3,4.5l-3.5-1.4v5.6l-1.2,1.8.4,2.3-2.3,1.4-2.5-8.8h-1.2l-.8,3.6-2.5-2.9,1.4-3.2h2.1c0-.2,2.1-5,2.1-5l-2.7-.9h-4.3l-4.3-.7-.4-3.8h-2.3c0-.2-3.7-2.7-3.7-2.7l-1.7,3.8,3.3,2.9-2.9,2-1,2,2.9,1.6-.8,3.4,1.7,4.1.6,4.5-.6,2h-3.1l-5.6,1.1v4.1c.2,0-2.3,3.2-2.3,3.2l-6.6,3.8-5.2,6.5-3.5,3.4-4.5,3.6v2.5l-2.3,1.4-4.1,2h-2.1c0,.2-1.4,4.5-1.4,4.5l1,7.2v4.5c.2,0-1.7,5.2-1.7,5.2v9.5h-2.5c0,.2-2.1,4.5-2.1,4.5l1.4,1.8-4.1,1.6-1.7,3.8-1.9,1.6-4.3-5.2-2.1-7.7-1.9-5.6-1.7-2.7-2.5-5.4-1-7-.8-3.4-4.1-7.7-1.9-10.8-1.4-7v-6.8l-.8-5.2-6.6,3.4-3.3-.7-6-6.8,2.3-2-1.4-2.3-5.4-4.7,3.1-3.6h10.1l-.8-4.7-2.5-2.7-.4-4.3-2.9-2.5,5-5.9,5.4.5,4.7-5.9,2.9-5.6,4.3-5.6v-3.8l3.9-3.2-3.7-2.7-1.7-3.8-1.7-4.7,2.3-2.5,7,1.4,5.2-.9,4.3-4.7,5,6.5-.4,4.5,1.9,2.9v2.7l-3.5-.7,1.2,6.1,4.5,3.6,6.4,3.8-2.9,2.5-1.9,5.2,4.3,2,4.3,2.7,6,3.2,6.2.7,2.7,2.7,3.5.5,5.6,1.4h3.9l.4-2.3-.6-3.4.4-2.5,2.9-1.1.4,4.3v1.1l4.3,2,2.9-.9,3.9.5h3.7v-3.6c.2,0-1.7-1.8-1.7-1.8l3.7-.7,4.1-4.1,5.2-3.6,3.9,1.4,3.3-2.3,2.1,3.4-1.7,2.3,5,.9.4,1.1h.5Z"/>
  <path id="BGD" class="st2" d="M508.1,342.8v4.1l-1.7-.9v4.5c.2,0-1-2.9-1-2.9v-2.7c-.2,0-1-2.7-1-2.7l-1.9-3.2h-4.1l.4,2-1.4,3.2-2.1-1.1-.6.9-1.2-.7-1.9-.5-.6-4.5-1.7-4.1.8-3.4-2.9-1.6,1-2,2.9-2-3.3-2.9,1.7-3.8,3.7,2.5h2.3c0,.2.4,4.1.4,4.1l4.3.7h4.3l2.7.9-2.1,4.7h-2.1c0,.2-1.4,3.4-1.4,3.4l2.5,2.9.8-3.6h1.2l2.5,8.8h-.6.1Z"/>
  <path id="BTN" class="st2" d="M503.6,311l1.9,1.8v3.4h-4.1l-3.9-.5-2.9.9-4.1-2v-1.1l2.9-4.1,2.5-1.4,3.3,1.4h2.5l2.1,1.6h-.2,0Z"/>
  <path id="NPL" class="st2" d="M487.3,310.5l-.4,2.5.6,3.4-.4,2.3h-3.9l-5.6-1.1-3.5-.5-2.7-2.7-6.2-.7-6-3.2-4.3-2.7-4.3-2,1.9-5.2,2.9-2.5,1.9-1.4,3.7,1.8,4.5,3.6,2.5.9,1.4,2.7,3.5,1.1,3.7,2.5,5.2,1.4,5.4.5v-.7h.2-.1Z"/>
  <path id="PAK" class="st2" d="M440.2,268.4l-4.3,4.7-5.2.9-7-1.4-2.3,2.5,1.7,4.7,1.7,3.8,3.7,2.7-3.9,3.2v3.8l-4.3,5.6-2.9,5.6-4.7,5.9-5.4-.5-5,5.9,2.9,2.5.4,4.3,2.5,2.7.8,4.7h-10.1l-3.1,3.6-3.3-1.4-1.4-4.1-3.5-4.3-8.5,1.1h-7.4l-6.4.9,1.7-6.3,6.6-2.9-.4-2.5-2.3-.9v-5l-4.5-2.5-1.9-3.4-2.3-2.9,7.6,2.7,4.5-.9,2.7.7,1-1.1,3.1.5,6-2.3v-4.7l2.7-3.2h3.5l.4-1.6,3.5-.7,1.7.5,1.9-1.6v-3.4c-.2,0,1.7-3.4,1.7-3.4l2.9-1.4-1.9-3.6h4.3l1.2-1.8v-2l2.1-2.3-.4-2.7-1-2.3,2.7-2.5,5-1.1,5.2-.7,2.3-1.1,2.7-.7,3.3,2.5,1.4,4.3,7.4,2.3h.8v.2l-.2.4h0Z"/>
  <path id="AFG" class="st2" d="M388.4,258h2.5l3.5,1.1,1.4.7,3.3-1.8,1.7,1.1,1.4-2.5h2.7l.6-.7.4-2.3,2.1-2,2.5,1.4-.4,1.6h1.4l-.4,5,1.9,1.8,1.7-1.1,2.1-.5,2.9-2.5,3.1.5h4.7l.8,1.6-2.7.7-2.3,1.1-5.2.7-5,1.1-2.7,2.5,1,2.3.4,2.7-2.3,2.3v2l-1,2h-4.3l1.9,3.4-2.9,1.4-1.9,3.4v3.4c.2,0-1.4,1.6-1.4,1.6l-1.7-.5-3.5.7-.4,1.6h-3.5l-2.5,3.2v4.7l-6.2,2.3-3.1-.5-1,1.1-2.7-.7-4.5.9-7.6-2.7,4.1-5-.4-3.6-3.5-.9-.4-3.6-1.4-4.5,2.1-2.9-2.1-.9,1.2-4.1,1.9-7,4.7,2,3.5-.7,1-2.5,3.7-.9,2.5-1.8.8-4.5,3.9-1.1.6-2,2.1,1.6h1.4l-.6.5h0v-.2h0Z"/>
  <path id="TJK" class="st2" d="M394.4,259.3l2.5-5.6-1-4.1-3.3-1.4,1.2-2.5h3.7l2.3-2.7,1.4-3.6,6.2-1.4-1,2.5.6,1.6h1.9l-1.7,1.6-5-.9-.4,3.2,5-.5,5.6,1.8,8.7-.9,1.2,5.2,1.4-.5,2.9,1.4v2.3l.6,3.2h-4.7l-3.1-.5-2.9,2.5-2.1.5-1.7,1.1-1.9-1.8.4-4.7h-1.4l.4-2-2.5-1.4-2.1,2-.4,2.3-.6.9h-2.7l-1.4,2.5-1.7-1.1-3.3,1.8-1.4-.7h.3Z"/>
  <path id="KGZ" class="st2" d="M408.8,230.9l1-2.5,3.1-.7,7.4,1.8.6-3.2,2.7-1.1,6.4,2.3,1.7-.7h7.6l6.8.7,2.3,2,2.9.9-.6,1.4-7.2,2.9-1.7,2.3-6,.7-1.7,3.6-4.7-.7-3.1,1.1-4.3,2.7.6,1.4-1.2,1.4-8.7.9-5.6-1.8-5,.5.4-3.2,5,.9,1.7-1.8,3.5.5,5.8-4.1-5.4-2.9-3.3,1.4-3.3-2,3.9-3.6-1.4-.5v-.5h-.2,0Z"/>
  <path id="TKM" class="st2" d="M324.2,233.6l2.1-1.8,5.2-1.1,3.1,1.6,3.3,4.3h7.4l-.8-2.7,3.9-1.8,3.9-3.2,6.2,2.9.4,4.5,1.9,1.1h5l1.4.7,2.3,5.6,5.2,3.8,2.9,2.5,4.7,2.7,6.2,2.5v3.4h-1.4l-2.1-1.6-.6,2-3.9,1.1-.8,4.5-2.5,1.8-3.7.9-1,2.5-3.5.7-4.7-2-.4-4.7h-3.3l-5.2-5.2-3.7-.7-5.2-2.7-3.3-.5-2.1,1.1h-3.1l-3.3,2.9-3.9,1.1-.8-3.8.6-5.9-3.5-1.8,1.2-3.8h-3.1l1-5,4.3,1.4,3.9-1.8-3.3-3.4-1.2-3.2-3.7,1.4-.4,4.1-1.4-3.6v-.9h-.2Z"/>
  <path id="IRN" class="st2" d="M306.2,299l-2.5-2.9v-2.9h-1.4l.8-4.1-2.3-4.3-5.6-2.9-3.1-5.2,1-4.3,2.3-2-.4-3.2-3.1-1.6-2.9-6.5-2.5-4.5.8-1.8-1.4-6.3,3.1-1.6.8,2,2.3,2.5,3.1.7h1.7l5.4-4.3,1.7-.5,1.4,1.6-1.7,2.7,2.9,2.9h1l1.4,3.8,4.3,1.1,3.1,2.7,6.4.9,7.2-1.6.4-1.4,3.9-1.1,3.3-3.2h3.1l2.1-.9,3.3.5,5.2,2.7,3.7.7,5.2,5h3.3l.4,5-1.9,7-1.2,4.1,2.1.9-2.1,2.9,1.4,4.5.4,3.6,3.5.9.4,3.6-4.1,5,2.3,2.9,1.9,3.4,4.3,2.5v5l2.3.9.4,2.5-6.6,2.9-1.7,6.3-8.7-1.6-5-1.4-5.2-.7-1.9-6.8-2.3-.9-3.5.9-4.5,2.7-5.6-1.8-4.5-4.3-4.3-1.6-3.1-5.2-3.3-7.4-2.5.9-2.9-1.8-1.7,2.3h-.4.3Z"/>
  <path id="SYR" class="st2" d="M247.4,283.7h0l.6-.9v-2.3l1-2.9,2.5-2-.8-2.3h-2.1l-.4-4.5,1-2.3,1.2-1.1,1.2-1.1v-3.2l1.7,1.1,5-1.6,2.5,1.1h3.7l5.4-2h2.5l5.2-.7-2.3,3.4-2.5,1.4.4,4.1-1.7,6.8-10.1,5.6-8.9,5.9-5.2-2.3h0v-.2h0Z"/>
  <path id="ARM" class="st2" d="M296.7,250.3h-1.7l-1.9-2.9v-.9h-2.1l-1.4-1.6h-1l-1.9-1.4-3.5-1.4.4-2.7-.8-2,6.4-.9,1,1.4,1.7.9-.8,1.4,2.5,1.8-1.2,1.8,1.9,1.6,2.1.9v3.8h.4v.2h-.1Z"/>
  <path id="BLR" class="st2" d="M212.9,154l4.7,1.4.6,1.4,2.5-.7,4.5,1.4.4,2.5-1,1.6,2.9,3.6,1.9.9v.9l2.9.9,1.2,1.6-1.9,1.1h-4.5l1,2,1,3.6h-3.9l-1.4,1.6v2.7l-2.1-.5h-4.1l-1.2-1.1-1.7.9-1.7-.9h-3.5l-5.2-1.4-4.5-.5h-3.5l-2.5,1.6h-2.3v-2.3l-1.4-2.5,2.7-1.1v-2.3l-1.2-2v-2.5h4.3l5-2,1-3.2,3.7-1.8-.4-2.5,2.7-.9,5-2v.5h0Z"/>
  <path id="UKR" class="st2" d="M229.4,176.6h1.7l1.2-1.1h6.2l2.9,3.2-1.2,1.1.4,1.8h3.7l1.7,2.7v1.1l5.8,2,3.5-.9,2.9,2.5h2.7l6.8,1.8v1.6l-1.9,2.9,1,2.9-.8,1.8-4.3.5-2.3,1.6v2.5l-3.7.5-3.1,1.8h-4.3l-3.9,2.3v2.9h-.4l-.6-1.1h-1.4l-3.3-1.4-1.2,1.4-.6-.7-7-1.4-.4-2-4.1.7-1.7,2.9-3.5,4.1-2.1-.9-2.1.9-2.1-1.1,1.2-.7.8-1.8,1.2-1.8-.4-.9,1-.5.4.7h3.9l-.8-.9.4-.9-1.7-1.4-.6-2.3-1.7-.9.4-1.8-2.1-1.6h-1.9l-3.3-2-3.1.5-1,.9h-1.9l-1.2,1.4-3.3.5-1.7.9-2.1-1.4h-2.9l-2.9-.7-2.1,1.1v-1.6l-2.9-1.6.8-2.3,1.2-1.4h1l-1.2-2.3,4.1-4.5,2.3-.7.4-1.6-2.3-4.7h2.3l2.5-1.8h8.1l5.2,1.6h3.5l1.7.9,1.7-.9,1.2,1.4h6v-2.7l1.7-1.1h3.9-.4.1Z"/>
  <path id="POL" class="st2" d="M191.4,166.7v2.5l1.4,2v2.3l-2.7,1.1,1.4,2.5v2.5l2.5,4.7-.4,1.6-2.3.7-4.1,4.5,1.2,2.5h-1l-4.3-2.5-3.3.9-2.1-.7-2.7,1.1-2.3-2-1.9.7h0l-2.1-2.9-3.3-.5-.4-1.8-3.1-.7-.6,1.4-2.5-1.1v-1.6l-3.1-.5-2.1-1.8-1.9-3.6.4-1.8-1-2.9-1.7-2,1.2-1.6-1-2.7,3.1-1.6,7.2-2.5,5.8-1.8,4.5.9.4,1.4h4.3l5.6.7h8.5l2.3.5,1,1.8-1,.5h-.2l.3-.2h0Z"/>
  <path id="AUT" class="st2" d="M161.7,198.5l-.4,2.3h-2.5l.8,1.1-1.4,3.6-.8.9h-3.9l-2.3,1.4-3.7-.5-6.6-1.4-1-2-4.5.9-.6,1.1-2.7-.7h-2.3l-2.1-1.1.6-1.4v-.9h1.2l2.3,1.4.6-1.6h4.1l3.3-.7h2.3l1.4,1.4.4-.9-.6-3.6,1.7-.7,1.7-2.5,3.3,1.8,2.5-2.3,1.7-.5,3.5,1.8h2.1l2.1.7-.4.7.4,2v-.5h0l-.2.2h0Z"/>
  <path id="MDA" class="st2" d="M205.9,198l1-.9,3.1-.5,3.3,1.8h1.9l2.1,1.8-.4,1.8,1.7.9.6,2.3,1.7,1.4-.4.9.8.7-1.2.5h-2.7l-.4-.9-1,.5.4.9-1.2,1.8-.8,1.8-1.2.7-.8-2.5.4-2.5v-2.5l-2.9-3.4-1.4-2.3-1.4-1.6-1.4-.5h.6v-.2h-.4Z"/>
  <path id="ROU" class="st2" d="M213.1,213.1l2.1,1.1,2.1-.9,2.1.9v1.4l-2.1,1.1-1.4-.5-1.2,6.8-2.7-.7-3.3-2-5.4,1.4-2.3,1.4h-6.8l-3.5-1.1-1.9.5-1.2-2.3-.8-.9,1-.9-1-.7-1.4,1.4-2.7-1.6-.4-2.3-2.9-1.4-.4-1.8-2.5-2.3,3.7-1.1,2.7-3.8,2.1-3.8,2.9-1.1,2.1-1.1,2.9.7h2.9l2.1,1.4,1.7-.9,3.3-.5,1.2-1.4h1.9l1.4.5,1.4,1.6,1.4,2.3,2.7,3.4v2.5l-.4,2.5.8,2.5h0l-.2-.3h0Z"/>
  <path id="EST" class="st2" d="M212.1,135.8l.6.9-3.3,3.2,1.4,5.2-2.1,1.8h-3.7l-3.9-2-2.1-.7-3.9.9.6-3.2-1.7.7-2.9-2-.4-3.2,5.8-1.6,5.8-.9,5,.9h4.8,0Z"/>
  <path id="BGR" class="st2" d="M187.7,220.1l1.2,2.3,1.9-.5,3.5.9h6.8l2.3-1.1,5.4-1.4,3.3,2,2.7.7-2.3,2.3-1.7,3.8,1.4,3.2-3.9-.7-4.7,1.8v2.7l-4.1.5-3.3-2-3.7,1.6h-3.3l-.4-3.8-2.3-1.8.8-.7-.4-.7.8-1.8,1.7-1.8-2.3-2.5-.4-2,1-1.4v.5h0Z"/>
  <g id="GRC">
    <path class="st2" d="M204.2,269.5l-.6,1.6-6.6.5v-.9l-5.6-1.1.8-2.3,2.5,1.8h6.8v.9l2.5-.7h.2v.2h0Z"/>
    <path class="st2" d="M188.9,236.1h3.3l3.7-1.4,3.3,2,4.1-.5v-2.7l2.3,1.4-1.4,3.4-1,.7h-2.9l-2.5-.7-5.6,1.4,3.1,3.2-2.3.9h-2.5l-2.5-2.9-.8,1.1,1,3.4,2.3,2.5-1.7,1.1,2.5,2.5,2.3,1.6v3.2l-4.1-1.4,1.4,2.7-2.9.7,1.7,5h-3.1l-3.7-2.3-1.7-4.5-.8-3.6-1.9-2.5-2.3-3.2v-1.6l1.9-2.7v-1.8l1.7-.9v-1.4l3.1-.5,1.9-1.1h2.5l.8-.9h.8v-.2h0Z"/>
  </g>
  <path id="ALB" class="st2" d="M180.3,238.6v1.4l-1.7.9v1.8l-2.5,2.7-.8-.5v-1.1l-2.7-1.8-.4-2.7.4-3.8.6-1.8-.8-.9v-1.8l1.7-2.7v1.1l1.4-.5,1,1.6,1,.7.4,2-.6,1.8.6,2.5,1.9,1.4h.4v-.2h.1Z"/>
  <path id="LUX" class="st2" d="M111.7,187.4l.8,1.4v2.5h-1.7l-1-.5.4-3.2h1.4v-.2h0Z"/>
  <path id="NCL" class="st2" d="M842.6,580.9l3.7,3.4,2.5,2.5-1.7,1.4-2.5-1.6-3.3-2.5-2.9-2.9-3.1-3.8-.6-1.8h2.1l2.5,2,2.1,1.8,1.4,1.6h-.2Z"/>
  <g id="SLB">
    <path class="st2" d="M825.9,522.5l1.2,1.8h-3.1l-1.7-3.4,2.7,1.4h.8v.2h0Z"/>
    <path class="st2" d="M823.8,517.5l-.6,1.1-3.5-4.7-1-3.4h1.7l1.7,4.5,1.9,2.7h0v-.2h-.2Z"/>
    <path class="st2" d="M820.1,519.1h-1.9l-2.9-.5-1-.9v-2.3c.2,0,3.3.9,3.3.9l1.4,1.1.8,1.4h0l.2.2h.1Z"/>
    <path class="st2" d="M814.5,508.7l1,1.8v1.1l-3.3-2.3-2.5-2-1.7-1.8.6-.7,2.1,1.4,3.7,2.5h.1Z"/>
    <path class="st2" d="M803.2,503.3l1.9,1.8h-.8c0,.2-2.1-.9-2.1-.9l-1.9-2.3v-.9c.2,0,2.9,2.3,2.9,2.3h0Z"/>
  </g>
  <path id="LKA" class="st2" d="M458.4,422.8l-.6,5.9-1.9,1.6-3.9,1.4-2.3-4.3-.8-7.9,2.1-9,3.1,3.2,2.1,3.8,2.3,5.9v-.5h-.1Z"/>
  <path id="TWN" class="st2" d="M641.3,329.7l-2.7,8.8-2.1,4.5-2.5-4.7-.4-4.1,2.7-5.4,3.7-4.3,2.1,1.6-.8,3.4h0v.2Z"/>
  <g id="AZE">
    <path id="_Path_-2" class="st2" d="M296.3,233.2h1.2l3.1,3.6,2.1.5.8-1.4,2.7-2.3,2.5,2.9,2.3,3.8h2.1l1.4,1.8-3.7.5-.8,4.3-.8,2-1.7,1.4v2.7h-1l-2.9-2.7,1.7-2.7-1.4-1.6-1.7.5-5.4,4.1v-3.8l-2.1-.9-1.9-1.6,1.2-1.8-2.5-1.8.8-1.4-1.7-.9-1-1.4,1-.9,3.3,1.6h3.1l-2.3-2.9,1.2-.7v-.7l.2-.2h.2,0Z"/>
    <path class="st2" d="M295.1,250.3l-3.1-.7-2.3-2.5-.8-2h1l1.4,1.4h2.1v.9l1.9,3.2h0l-.2-.2h0Z"/>
  </g>
  <path id="GEO" class="st2" d="M266.8,224.4l.6-.7,3.9.9,6.8.9,6.2,2.7.8,1.1,2.9-.9,4.3,1.1,1.4,2.3,2.9,1.4-1.2.7,2.3,2.9-.6.7h-2.5l-3.3-2-1,.9-6.4.9-4.3-2.7h-5l.6-2-1-3.8-2.7-2-2.5-.7-1.7-1.8h-.6v.2h.1Z"/>
  <g id="PHL">
    <path class="st2" d="M637,394.2l-2.3-4.3h3.9l1.7,2.3-1.2,4.7-2.1-2.7h0Z"/>
    <path class="st2" d="M645,409.3l1.2-1.6.4-3.4h2.5c0-.2-.8,3.4-.8,3.4l3.3-5.4-.4,5.2-1.7,1.8-1.4,3.4-1.4,1.6-2.9-3.8.8-1.6.4.5h0Z"/>
    <path class="st2" d="M662.4,418.1l.4,3.6v3.2c.2,0-1.2,5-1.2,5l-1.7-5.6-2.1,2.7,1.4,4.1-1.2,2.5-5.4-3.2-1.2-4.1,1.4-2.7-2.9-2.7-1.4,2.3h-2.1l-3.3,2.9-.8-1.6,1.9-4.7,2.9-1.6,2.5-2,1.7,2.5,3.5-1.6.8-2.5h3.3v-4.5c-.2,0,3.5,2.7,3.5,2.7l.4,2.7.4,2-.8.7h0Z"/>
    <path class="st2" d="M626.2,412.9l-6.2,5.2,2.3-3.8,3.3-3.4,2.7-3.8,2.5-5.4.8,4.5-3.1,2.9-2.5,3.8h.2Z"/>
    <path class="st2" d="M643.8,363.7l-.8,2.3,1.7,4.1-1.2,4.5-2.7,1.8-.6,4.5,1,4.3,2.5.7,2.1-.7,5.8,3.2-.4,2.9,1.4,1.4-.4,2.5-3.5-2.7-1.7-2.9-1.2,2-2.9-3.4-4.1.9-2.3-1.1v-2.3c.2,0,1.7-1.4,1.7-1.4l-1.4-1.4-.6,2-2.3-3.2-.6-2.5v-5.2l1.7,1.8.4-8.6,1.4-5h2.7l2.9,1.6,1.4-1.4.4,1.4h-.2v-.2h-.2Z"/>
    <path class="st2" d="M642.5,401.4l-.6-2.7,2.7,1.8h2.9v2.3l-2.3,2.3-2.9,1.6v-5.2h.2,0Z"/>
    <path class="st2" d="M658.4,397.3l1.2,6.1-3.5-1.6v1.8l1.2,3.4-2.3,1.4v-3.8h-1.7c0-.2-.6-3.6-.6-3.6l2.7.5v-2l-2.9-4.3h4.3l1.2,2.3h.2l.2-.2h0Z"/>
  </g>
  <path id="BRN" class="st2" d="M612.4,434.3v2.7l-.4,3.6h-2.3l-1,1.8-2.1-2.9,1.9-2,3.9-2.9h0v-.2h0Z"/>
  <path id="FIN" class="st2" d="M214.8,82.8l-.6,3.8,7,3.6-4.3,4.1,5.4,6.3-3.1,4.7,4.1,4.1-1.9,3.6,6.8,3.8-1.7,2.7-4.3,3.2-9.9,7-8.3.5-8.1,2-7.4,1.1-2.7-2.9-4.3-1.8,1-5.4-2.3-5,2.3-3.2,4.1-3.4,10.5-6.1,3.1-1.1-.4-2.3-6.4-2.7-1.7-2.3v-8.6l-7.2-3.8-6.2-2.7,2.7-1.6,5.2,2.9h6l5,1.1,4.3-2.5,2.3-4.1,7-1.8,6,2.3-1.9,3.8v.5h-.2v.2h0Z"/>
  <path id="SVK" class="st2" d="M187.3,193.3l-1.2,1.4-.8,2.3-1,.5-5-1.6-1.4.5-1,1.4-2.1.7-.4-.5-2.3.9h-1.9l-.4,1.4-3.9.7-1.7-.7-2.3-1.4-.4-2,.4-.7.6-1.1h2.1l1.7-.5v-.5h1v-1.6h1.4l.6-.9h1.7l1.9-.5,2.3,2,2.7-1.1,2.1.7,3.3-.9,4.3,2.3v-.7h-.3Z"/>
  <path id="ERI" class="st2" d="M250.7,384.7l-.4-2.3,2.1-8.1.4-3.6,1.4-1.8,3.3-.9,2.3-3.2,2.7,6.3,1.2,5.2,2.5,2.7,6.2,5.2,2.5,3.2,2.5,3.2,1.4,2,2.3,1.6-1.4,1.4-1.9-.5-1.7-1.8-1.9-3.2-2.1-1.8-1.2-1.8-3.9-2.3h-3.1l-1-1.1-2.7,1.4-2.7-2.5-1.4,4.1-5.4-1.1h0v-.2h0Z"/>
  <path id="YEM" class="st2" d="M321.9,359.5l3.5,9,1.4,3.8-3.3,1.6-.8,2.5v1.8l-4.7,2.3-7.2,2.5-4.1,3.8h-2.1c0,.2-1.4,0-1.4,0l-2.7,2.3-2.9,1.1h-3.9c0,.2-1.2.7-1.2.7l-1,1.6-1.2.5-.6,1.4h-2.3l-1.4.7h-3.1c0-.2-1.2-3.4-1.2-3.4v-2.9l-.6-1.6-.8-4.1-1.2-2.3h.8c0-.2-.4-2.7-.4-2.7l.6-1.1v-2.5c-.2,0,1.9-1.8,1.9-1.8l-.4-2.3,1.2-2.7,1.9,1.4,1.2-.5h5.4l.8.5,4.3.5h1.9c0-.2,1,1.6,1,1.6l2.1-.9,3.3-5.9,4.3-2.5,13.2-2h0v-.2l-.3-.2h0Z"/>
  <path id="SAU" class="st2" d="M243.9,302.2l5.2.9,2.1-1.8,1-2,3.5-.7.8-1.8,1.4-.9-4.5-5.6,9.1-2.7.8-.9,5.6,1.6,6.8,3.8,12.8,11,8.5.5,4.1.5,1,2.7h3.3l1.9,4.5,2.3,1.4.8,2,3.1,2.3v2.3c.2,0,0,1.8,0,1.8l.6,1.8,1.2,1.6.6,1.8.6,1.4,1.4,1.1,1.2-.5.8,2v1.4l1.9,5.6,13.8,2.7,1-1.1,2.1,3.8-3.1,11-13.6,5.6-13.2,2-4.3,2.5-3.3,5.9-2.1.9-1-1.8h-1.9c0,.2-4.3-.2-4.3-.2l-.8-.5h-5.4l-1.2.7-1.9-1.4-1.2,2.7.4,2.3-2.1,1.8-.6-2.5-1.4-1.6-.4-2.3-2.3-2-2.5-4.7-1.2-4.5-3.1-3.8-2.1-.9-3.1-5.2-.6-3.8v-3.4c.2,0-2.5-6.1-2.5-6.1l-2.1-2.3-2.5-1.1-1.4-3.2v-1.4l-1-2.9-1.2-1.1-1.9-4.1-2.9-4.5-2.3-3.8h-2.3l.6-2.9v-2l.8-2.3v.5h.2Z"/>
  <g id="CYP">
    <path class="st2" d="M233.7,270.4h0l.6-1.4h3.3l4.1-1.6-3.1,2.5.4,1.1h-2.1v-.5l-.4-.5h-.8l-1.2.5h-1l.2-.2h0Z"/>
    <path class="st2" d="M233.7,270.4h2.9l.4.5v.5h2.3v.7l-4.7,2.3-2.3-.7-1-2.3h2.3v-.7l.2-.2h0Z"/>
  </g>
  <path id="MAR" class="st2" d="M74,270.2l1.7,3.6v3.4l1.9,5.9,1.2,1.1-.8,2.3-6,.9-2.1,2-2.7.5v4.1l-5.6,2.3-1.9,2.7-3.7,1.6-4.5.9-7.4,4.1v6.5h-.6v2.9h-2.7l-1.4,1.4h-2.1l-1.7-.7-3.9.7-1.4,4.3-1.4.5-2.1,7-6.4,5.9-1.4,7.7-1.9,2.5-.6,2-10.3.5h0v-2.5l2.1-1.6,1.4-2.9v-1.8l1.2-3.8,2.5-3.6,1.4-.9,1.2-3.2v-2.9l1.7-3.4,3.1-2,2.9-5.6h0l2.3-2.3,4.3-.7,3.7-3.8,2.3-1.6,3.7-4.5-1.2-7,1.9-4.7.6-2.9,2.9-3.8,4.5-2.5,3.3-2.3,3.1-5.6,1.4-3.4h3.3l2.7,2.5,4.3-.5,4.7,1.1h2.5v-.4h0Z"/>
  <path id="LBY" class="st2" d="M198.4,343v11h-5.4v2.3l-18.2-10.6-18.2-10.6-4.5,2.9-3.3,2-2.5-2.9-7.2-2.5-2.1-3.4-3.7-2.5-2.1.9-1.7-3.2v-2.5l-2.9-4.1,1.9-2.3-.4-3.4.6-2.9-.4-2.5.8-4.5v-2.5l-1.7-5,2.3-1.4.4-2.3-.4-2.3,3.1-2,1.4-1.8,2.3-1.6v-4.3l5.6,1.8,1.9-.5,3.9.9,6,2.5,2.1,5,4.1,1.1,6.4,2.3,5,2.7,2.3-1.4,2.3-2.5-1-4.3,1.4-2.7,3.3-2.5,3.1-.7,6.2,1.1,1.7,2.5h1.7l1.4.9,4.5.7,1,1.8-1.7,2.7.6,2.5-1.2,3.4,1.4,4.5v39.9h0l-.2-.2v.5h0Z"/>
  <path id="DJI" class="st2" d="M277.7,395.1l1.9.5,1.4-1.4,1,1.8v2.3l-2.7,1.4,2.1,1.6-1.7,2.9-1-.9-1,.5h-2.5v-1.8l-.4-1.6,1.7-2.5,1.7-2.5h-.4v-.2h-.1Z"/>
  <path id="UGA" class="st2" d="M239.1,469.7l-9.3.5h-5l-1.7.7-2.7,1.8-1-.5v-4.1l1-2v-4.5l1.2-2.5,1.9-2.9,1.9-1.6,1.4-2-1.9-.7v-6.5l2.3-1.6,2.9,1.4,3.7-1.4h3.3l2.9-2.5,2.1,3.8.6,2.7,2.1,6.3-1.7,4.1-2.3,3.6-1.2,2.3v5.9h-.6v-.2h.1Z"/>
  <path id="RWA" class="st2" d="M223.2,470.9l1.9,3.2v3.2l-1.7.7h0l-2.5-.5-1.4,3.2-2.7-.5.4-2.9.6-.5v-3.4l1.4-1.6,1,.5,2.7-1.8v.5h.3Z"/>
  <path id="BIH" class="st2" d="M168.9,228.9l-4.1-2-1.7-2.3-1.7-1.1-2.1-2-1-1.8-2.3-2.5,1-2.3,1.7,1.4,1-1.1h2.1l3.9.9h3.1l2.1,1.1h1.7l-1,2.5,2.3,2-.6,2.7h-1l-.8.7-1.4,1.4-.6,2.9-.4-.5h-.2Z"/>
  <path id="MKD" class="st2" d="M186.5,230.7l2.3,1.8.4,3.6h-.8l-.8,1.1h-2.5l-1.9,1.1-3.1.5-1.9-1.4-.6-2.5.6-1.8h.6v-1.1l2.7-.9h1l1.7-.5h2.3Z"/>
  <path id="SRB" class="st2" d="M170.2,210.9h0l3.5-1.4h2.9l2.5,2.5.4,1.8,2.9,1.4.4,2.3,2.7,1.6,1.4-1.4,1,.7-1,.9.8.9-1,1.4.4,2,2.3,2.5-1.7,1.8-.8,1.8.4.7-.8.7h-2.1l-1.7.5v-.5l.4-.7.4-1.4h-.6l-.8-.9h-.8l-.6-1.1h-.8l-.6-1.1h-.8l-.6,2.3-1,.5.4-.5-1.9-1.1-1.4-.7-.6-.7-1.2-.9h1l.6-2.9-2.3-2,1-2.5h-1.7l1.9-2-1.4-1.6-1-2.3v-.5h0Z"/>
  <path id="MNE" class="st2" d="M175.7,229.1l-1.2.5v-1.1l-2.3,2.7v1.8l-.6-.5-1.2-1.8-2.1-1.1.4-.9.6-2.9,1.4-1.4.8-.5,1.2.9.6.7,1.4.7,1.9,1.1-.4.5-.8,1.4h.3Z"/>
  <path id="XKX" class="st2" d="M178.2,233.2l-.4-2-1-.7-1-1.6.8-1.4,1-.5.6-1.8h.8l.6.5h.8l.6,1.1h.8l.8,1.4h.6l-.4,1.4-.6.7v.5h-.8l-2.7.9v1.1h-.8v.5h.3,0Z"/>
  <path id="SSD" class="st2" d="M225.1,445.2l-4.1-3.6-1-2.5-2.5,1.1-2.1-.5-1.2.9-2.1-.7-2.7-4.5-.8-1.8-3.3-2.3-1.2-3.4-1.9-2.5-3.1-2.9v-1.8l-2.5-2.3-3.1-2.3,1.4-.7,1.7-1.1,1.2-5,1.2-2.5,3.3-.7.8,1.6,2.3,3.2,1.2.5,1.7-.9h3.3l.6,1.4h4.5v-1.1l2.5-1.1.4-1.6,1.7-1.1,3.9,3.2,2.3-.7,2.3-4.1,2.5-2.9-.4-3.4-1-1.6h2.7v-1.6l2.1.5-.6,4.1.6,4.1,2.3,2.3.6,1.8v2.7h.6v4.3l-.6,1.8h-2.5l-1.7,3.4,2.9.5,2.3,2.7.8,2.3,2.1,1.4,2.7,6.1-3.1,3.6-2.9,3.4-2.9,2.5h-3.3l-3.7,1.4-2.9-1.4-1.9,1.6.4.5h.2v-.3Z"/>
    <path id="SOM" class="st2" d="M281.5,401.1L278.8 406 283.9 413.6 298.8 420.1 302.7 420.1 289.7 437 283.7 437 279.6 441.1 276.7 441.1 272.1 449 272.1 469.1 274.8 473.6 276.4 469.3 281.4 462.5 285.7 458.2 292.5 452.8 297 448.3 302.4 440.9 306.3 434.8 313.1 419.7 316 410.6 316.6 407.7 317.6 405.7 317.6 402.8 318 399.6 318 398 316.3 398 314 399.8 309.4 401.4 305.5 401.3 303.8 402.2 301.5 402.7 297.4 404.5 292.4 405.2 288.1 406.6 285.8 406.6 283.7 404.3 282.9 402 281.5 401.1z"/>
  <path id="ETH" class="st2" d="M302.9,420.6l-13,16.7h-6l-4.1,4.1h-2.9l-1.2,1.8h-3.1l-1.9-1.8-4.1,2.3-1.4,2.3-3.1-.5-1-.7h-2.5l-5.8-4.7h-3.3l-1.7-1.8v-3.2l-2.5-.9-2.7-6.1-2.1-1.4-.8-2.3-2.3-2.7-2.9-.5,1.7-3.2h2.5l.6-1.8v-5l1.2-5.9,2.1-1.6.4-2.3,2.1-4.3,2.7-2.7,1.9-5.4.8-4.7,5.4,1.1,1.4-4.1,2.7,2.5,2.7-1.4,1,1.1h3.1l3.9,2.3,1.2,1.8,2.1,1.8,1.9,3.2,1.7,1.8-1.7,2.5-1.7,2.5.4,1.6v1.8h2.7l1-.5,1,.9-1,2,1.7,2.9,1.7,2.7,1.7,2,14.9,6.5h3.9l.8.9v.4h-.1Z"/>
  <g id="ARG">
    <path class="st2" d="M1414,755.4l1.9,2.5,2.3,4.1,6,3.4,6.4,1.4-2.1,2.7h-4.3c0,.2-2.3-1.6-2.3-1.6h-7.6v-12.4h-.3Z"/>
    <path id="_Path_-2-2" class="st2" d="M1465.7,631.4l-1.2,4.5-1.2,5.6v5.4l-1,1.4-.4,3.6v2.9l5.6,4.7-.6,3.8,2.9,2.5v2.7l-4.5,7-6.8,2.9-9.1,1.1-5-.5,1,3.4-1,4.1.8,2.7-2.7,2-4.7.7-4.3-2-1.9,1.4.6,5.4,3.1,1.6,2.5-1.8,1.4,2.9-4.1,1.8-3.7,3.4-.6,5.6-1,2.9h-4.3l-3.5,2.9-1.2,4.1,4.5,4.1,4.3,1.1-1.7,5-5.4,3.2-2.9,6.5-4.1,2.3-1.9,2.5,1.4,5.6,3.1,3.2h-1.9c0-.2-4.3-1.1-4.3-1.1l-11.1-.7-1.9-3.2v-4.1l-2.9.5-1.7-2-.4-5.9,3.5-2.5,1.4-3.6-.6-2.7,2.5-4.7,1.7-7.2-.4-3.2,2.1-1.1-.4-2-2.1-1.1,1.4-2.3-2.1-2-1-6.3,1.9-1.1-.8-6.8,1-5.6,1.2-5,2.7-2-1.4-5.4v-5.2l3.5-3.6v-4.5l2.5-5.4v-5.2l-1.2-.9-2.1-9.5,2.9-5.6-.4-5.4,1.7-5,2.9-5.2,3.3-3.4-1.4-2.3,1-1.8v-9.2l4.7-2.7,1.7-5.6-.6-1.4,3.7-5,6,1.4,2.7,4.1,1.9-4.5h5.2l.8,1.4,8.5,9,3.7.9,5.6,4.1,4.7,2.3.6,2.5-4.5,8.3,4.5,1.6,5.2.9,3.7-.9,4.1-4.3.8-5,2.3-1.1,2.3,3.2v4.5l-3.9,3.2-3.1,2.3-5.2,5.4-6.2,7.4-.4-.7h0l-.3-.2h0Z"/>
  </g>
  <path id="BRA" class="st2" d="M1485.1,651l-1.2-3.2,2.1-2.7-2.7-3.8-3.5-2.9-4.7-3.6h-1.7l-4.5-4.1-2.9.7,6.2-7.4,5.2-5.4,3.1-2.3,3.9-3.2v-4.5l-2.3-3.2-2.3,1.1.8-3.2.6-3.2v-2.9l-1.7-.9-1.7.9h-1.7c0-.2-.6-2.5-.6-2.5l-.4-5-.8-1.6-3.1-1.6-1.9,1.1-4.7-1.1v-7.4l-1-3.2,1.4-1.1-.4-3.2,1.2-2.5.8-4.3-1-3.4-2.5-1.6-.4-2.3.6-3.2h-8.7l-1.9-6.8h1.2v-2.5l-.8-1.6v-3.2l-2.9-1.6h-2.9l-1.9-1.6-3.1-1.1-1.9-2-5.2-.9-5-5,.4-3.6-.6-2.3.4-4.1-6,.9-2.5,2-3.9,2.3-1,1.6h-2.3l-3.3-.5-2.5.9-2.1-.7.4-8.3-3.7,3.2h-4.1l-1.7-3.2h-3.1c0-.2,1-2.7,1-2.7l-2.5-3.4-1.9-5,1.2-.9v-2.3l2.7-1.6-.4-2.9,1.2-2,.4-2.5,5.2-3.8,3.7-1.1.6-.9h4.1c0,.2,2.1-14.9,2.1-14.9v-2.5l-.6-3.2-2.1-2v-4.1l2.7-.9.8.7v-2l-2.5-.7v-3.4h8.9l1.4-1.8,1.2,1.8.8,3.2.8-.7,2.5,2.9,3.5-.5.8-1.6,3.3-1.4,1.9-.9.6-2.3,3.3-1.6v-1.1l-4.1-.5-.6-3.4v-3.6l-1.9-1.4.8-.5,3.3.7,3.7,1.4,1.2-1.4,3.3-.9,5.2-2,1.7-2-.6-1.6h2.5c0-.2,1,1.1,1,1.1l-.6,2.5,1.7.9,1,2.5-1.2,2-.8,4.7,1.2,2.7.4,2.5,2.9,2.5h2.3c0,.2.4-.9.4-.9h1.4c0-.2,2.1-1.1,2.1-1.1l1.4-1.6,2.5.5h3.5c0,.2.4-.9.4-.9l-.8-1.1.4-1.6,1.9.5,2.1-.7,2.7,1.1,2.1,1.1,1.4-1.6h1l.6,1.8,2.3-.5,1.9-2,1.4-4.1,2.7-5h1.7c0-.2,1,2.7,1,2.7l2.5,9.7,2.5.9v3.8l-3.3,4.5,1.4,1.6,8.1.9v5.6l3.7-3.6,5.8,2,7.6,3.4,2.3,3.2-.8,3.2,5.4-1.8,8.9,2.9h6.8l6.8,4.3,5.8,6.1,3.5,1.6h3.9l1.7,2,1.7,7,.8,3.4-1.9,9.2-2.3,3.6-6.4,7.7-2.9,6.3-3.3,4.7h-1.2l-1.2,4.3.4,10.4-1.2,8.6-.4,3.6-1.4,2.3-.8,7.4-4.5,7.2-.8,5.6-3.7,2.5-1,3.4h-5l-7.2,2-3.3,2.5-5.2,1.6-5.4,4.5-3.9,5.4-.6,4.1.8,2.9-.8,5.6-1,2.7-3.3,2.9-5.2,9.7-3.9,4.3-3.1,2.5-2.1,5.2-3.1,3.2-1.2.5h0l.3,1h0Z"/>
  <path id="PER" class="st2" d="M1409.5,488.2h-4.1c0-.2-.6.7-.6.7l-3.7,1.1-5.2,3.8-.4,2.5-1.2,2,.4,2.9-2.7,1.6v2.3l-1.2.9,1.9,5,2.5,3.4-1,2.5h3.1c0,.2,1.7,3.2,1.7,3.2h4.1l3.7-3.2-.4,8.3,2.1.7,2.5-.9,3.9,8.8-1,1.8v3.8l-.4,4.7-1.9,2.7.8,2-1,1.8,1.9,4.7-2.9,5.9-1.2,2.9-2.3,1.4-4.5-3.2-.4-2.3-9.1-5.6-8.3-6.1-3.5-3.4-1.9-4.5.8-1.6-3.9-7.2-4.5-10.1-4.3-11-1.9-2.5-1.4-4.1-3.5-3.6-3.3-2.3,1.4-2.5-2.3-5.2,1.4-3.8,3.7-3.4.6,2.3-1.2,1.4v2l2.1-.5,1.9.7,1.9,2.7,2.5-2.3.8-3.6,2.9-4.7,5.6-2.3,5-5.9,1.4-3.6-.6-4.3,1.2-.5,3.1,2.7,1.4,2.7,2.1,1.4,2.7,5.9,3.3.7,2.5-1.6,1.7.9,2.7-.5,3.5,2.5-2.9,5.6h1.4l2.3,3.2h.6l-.4.2h0Z"/>
  <path id="NOR" class="st2" d="M226.3,80.1l-7.8,2.3-3.7.5,1.9-3.8-6-2.3-7,1.8-2.3,4.1-4.3,2.5-5-1.4h-6l-5.2-2.7-2.7,1.6h-2.9l-.6,3.8-8.7-.9-1.2,3.2h-4.3l-3.1,3.8-4.5,6.1-7,7.7,1.7,1.8-1.7,2.3h-4.5l-2.9,5.2v7.4l3.1,2.7-1.4,6.5-3.7,3.8-2.1,3.2-3.1-3.4-9.1,6.3-6.2,1.4-6.4-2.7-1.7-5.9-1.4-12.9,4.1-3.6,12.2-4.7,9.1-5.6,8.5-7.7,10.9-10.6,7.6-4.1,12.6-7,10.1-2.5h7.4l7-4.3h8.3c0,.2,8.3-.9,8.3-.9l14.2,4.1-6,1.6,5,3.4h.6-.1Z"/>
  <g id="FRA">
    <path class="st2" d="M112.4,191.2l2.3,1.4,6.6,1.1-2.3,3.8-.6,3.8-1.2.9-2.1-.5v1.4l-3.1,3.2v2.5l2.1-.9,1.7,2.5v1.6l1.2,2-1.7,1.6,1.2,4.3,2.5.7-.4,2.5-4.1,3.2-9.1-1.6-6.6,1.8-.4,3.4-5.4.7-5.2-2.5-1.7,1.1-8.5-2.5-1.9-2.3,2.3-3.4.8-11-4.7-5.9-3.3-2.7-7-2.3-.4-4.1,6-1.1,7.6,1.4-1.4-6.3,4.3,2.5,10.7-4.3,1.4-4.5,3.9-1.1.6,2h2.1l2.1,2.3,3.1,2.7,2.3-.5,3.9,2.5,1,.5h1.2v.2h.2Z"/>
    <path class="st2" d="M123.9,228.9l2.9-2,.8,4.7-1.4,4.3-2.1-1.1-1-3.8,1-2h-.2Z"/>
  </g>
  <path id="ARE" class="st2" d="M320,330.6h.8c0-.2,0,1.4,0,1.4l3.5-.9h6.4c0,.2,3.1-3.6,3.1-3.6l3.5-3.6,2.9-3.4.8,1.8.6,4.3h-2.3l-.4,3.6.8.7-2.1,1.1v2.3l-1.4,2.3v2.3l-1,1.1-13.8-2.7-1.9-5.6v-1.4l.4.5h0v-.2h.1Z"/>
  <path id="THA" class="st2" d="M565.5,385.6l-4.3-.7-6,1.1-2.9,4.5,1,6.8-4.1-2.5h-3.9l.6-4.3h-4.1l-.4,6.1-2.5,8.1-1.4,5,.4,4.1h3.1l1.9,5.2.8,4.7,2.5,3.2,2.7.7,2.3,2.9-1.4,2.3-3.1.7-.4-2.9-3.7-2.5-.8.9-1.9-2-.8-2.7-2.5-3.2-2.3-2.7-.8,3.2-.8-3.2.4-3.4,1.4-5.2,2.3-5.6,2.5-5.2-1.9-5v-2.5l-.4-3.2-3.1-4.3-1-2.7,1.7-1.1,1.7-4.7-1.9-3.6-2.9-4.1-2.3-4.7,1.9-1.1,2.1-5.9h3.3c0-.2,2.7-2.7,2.7-2.7l2.7-1.4,2.1,1.8v3.4c.2,0,3.3.2,3.3.2l-1,5.9v5l5-3.4,1.4.9h2.7l1-2,3.5.5,3.5,4.5v5.4c.2,0,3.9,4.7,3.9,4.7v4.7l-1.7,2.5v-.5h.2-.3Z"/>
  <path id="HUN" class="st2" d="M185,196.9l2.5,1.6v1.6l-2.5,1.1-2.1,3.8-2.7,3.8-3.7,1.1h-2.9l-3.5,1.1h0l-1.7.9-3.7-1.1-3.5-2.5-1.4-.7-.8-1.8h-.8l1.4-3.6-.8-1.1h2.5l.4-2.3,2.3,1.4,1.7.7,3.9-.7.4-1.1h1.9l2.3-1.1.4.5,2.1-.7,1-1.4,1.4-.5,5,1.6,1-.5h0v-.2h0Z"/>
  <path id="LTU" class="st2" d="M205.3,157.2l.4,2.5-3.7,1.8-1,3.2-5,2h-4.3l-1-1.8-2.3-.7-.4-1.4.4-1.6-2.1-.9-4.7-.9-1-4.7,5.2-1.8,7.6.5,4.5-.5.6,1.1,2.5.5,4.3,2.7h0Z"/>
  <path id="LVA" class="st2" d="M208.8,146.8l2.3,1.4.4,2.7,1.4,3.2-5,2-2.7.9-4.3-2.7-2.5-.5-.6-1.1-4.5.5-7.6-.5-5.2,1.8v-4.1l2.5-3.4,4.3-1.8,3.7,4.1h3.7l.8-4.3,3.9-.9,2.1.7,3.9,2h3.7-.4.1Z"/>
  <path id="DEU" class="st2" d="M148.7,167.3l1,2.7-1.2,1.6,1.7,2,1,2.9-.4,1.8,1.9,3.6-2.1.7-1.2-.7-1,1.1-3.3,1.1-1.7,1.4-3.3,1.1.8,1.6.4,2.3,2.3,1.4,2.5,2.5-1.7,2.5-1.7.7.6,3.6-.4.9-1.4-1.1h-2.3l-3.3.9h-4.1l-.6,1.1-2.3-1.6h-1.4l-5-1.4-1,1.1h-3.9l.6-4.1,2.3-3.8-6.6-1.1-2.3-1.4v-2.5l-.6-1.4.4-3.8-.8-5.9h2.7l1.2-2,1-5-.8-1.8.8-1.1h3.9l.8.9,3.1-2.7-1-2v-3.2l3.3.7,2.9-.9v2.3l4.7,1.4v2l4.5-1.1,2.5-1.6,5.2,2.3,2.1,1.8h1.2v.2h0Z"/>
  <path id="HRV" class="st2" d="M159.8,207.5l1.4.7,3.5,2.5,3.7,1.1,1.7-.9,1,2.3,1.4,1.6-1.9,2-2.1-1.1h-3.1l-3.9-.9h-2.1l-1,1.4-1.7-1.4-1,2.3,2.3,2.5,1,1.8,2.1,2,1.7,1.1,1.7,2.3,4.1,2-.4.9-4.3-2-2.7-2-4.1-1.6-3.9-4.1.8-.5-2.1-2.3v-1.8l-3.1-.9-1.4,2.5-1.4-1.8v-2h3.5l.8-.7,1.7.9h1.9v-1.4l1.7-.7.4-2.3,3.7-1.6h.2,0Z"/>
  <path id="CHE" class="st2" d="M127.8,201.8v.9l-.6,1.4,2.1,1.1h2.3l-.4,2.5-2.1.9-3.3-.7-1,2.3h-2.3l-.8-.7-2.5,1.8h-2.3l-1.9-.9-1.7-2.5-2.3.9v-2.5l3.3-3.2v-1.4l1.9.5,1.2-.9h3.9l1-1.1,5,1.8h.4v-.2h.1Z"/>
  <path id="BEL" class="st2" d="M112.1,183.8l-.4,3.8h-1.2l-.4,3.4-3.9-2.5-2.3.5-3.1-2.7-2.1-2.3h-2.1l-.6-2,3.7-1.1h0l3.3.5,4.3-1.1,2.9,2.5,2.5,1.4h-.6v-.4h0Z"/>
  <path id="NLD" class="st2" d="M115.7,168.9l.8,1.8-1,5-1.2,2h-2.7l.8,5.9-2.5-1.4-2.9-2.5-4.3,1.1-3.3-.5h0l2.3-1.6,3.9-8.1,6.2-2.3h3.9v.5h0Z"/>
  <path id="ESP" class="st2" d="M49.8,259.6l-.4-1.8,1.7-2,.6-1.6-1.7-1.6,1.2-3.6-1.9-3.4,2.1-.5v-2.7l.8-.9v-4.3l2.3-1.6-1.2-2.7h-2.7l-.8.5h-2.7l-1.2-2.7-1.9.9-1.7,1.4v-3.8c.2,0-1.7-2.5-1.7-2.5l6.4-4.1,5.6.9h6.2l5,.9h11.1l1.9,2.3,8.5,2.5,1.7-1.1,5.2,2.5,5.4-.7v3.2l-4.1,3.6-5.8,1.1-.4,1.8-2.9,3.2-1.9,4.5,1.9,3.2-2.7,2.5-1,3.6-3.5,1.1-3.3,4.3h-10.1l-2.9,2-1.9,2-2.3-.5-1.7-1.8-1.2-3.2-4.3-.9h.4,0Z"/>
  <g id="NZL">
    <path class="st2" d="M893.6,686l-1.7,2.9-2.3,3.8-3.5,2.3-.8-1.4-1.9-.9,2.7-4.5-1.4-2.9-5-2.3v-2l3.5-2,.8-4.3v-3.6l-2.1-3.6v-.9l-2.1-2.3-3.7-5-1.9-3.8,1.7-.5,2.5,3.2,3.5,1.4,1.2,5,3.3,5.9v-3.8l2.3,1.6.6,4.3,3.7,1.8,3.1.5,2.7-2,2.3.7-1,5-1.4,3.2h-3.5l-1.2,1.6.4,2.5-.6,1.1v-.7h-.2v-.3h0Z"/>
    <path class="st2" d="M860.6,705.1l3.9-2.9,2.7-2.9,2.1-4.1,1.7-1.4.6-3.2,3.3-2.5,1,2.3,1,2.3,3.3-2.3,1.2,2.3v2.3l-1.7,2.5-3.1,4.1-2.3,2.3,1.7,2.7h-3.5l-3.9,2.3-1.2,3.6-2.7,5.6-3.5,2.5-2.3,1.6h-4.1l-2.9-2-5-.5-.8-2,2.5-4.1,5.8-5.4,2.9-1.1,3.3-2h0v.2-.2h0Z"/>
  </g>
  <g id="ITA">
    <path class="st2" d="M131.8,205.5l2.7.7.6-1.1,4.5-.9,1,2,6.6,1.4-.4,2.7,1,2.3-3.7-.9-3.7,2v4.3l1.4,2.7,4.3,2.7,2.3,4.5,5.2,4.5h3.5l1,1.1-1.2,1.1,4.1,2,3.3,1.6,3.9,2.9.4,1.1-.8,2-2.5-2.5-3.9-.9-1.9,3.6,3.3,2-.6,2.9h-1.9l-2.5,5-1.9.5v-1.8l1-2.9,1-1.1-1.9-3.2-1.4-2.7-1.9-.7-1.4-2.5-2.9-1.1-2.1-2.3-3.3-.5-3.5-2.5-4.1-3.6-3.1-3.2-1.4-5.4-2.3-.7-3.7-1.8-2.1.7-2.7,2.5-1.9.5.4-2.5-2.5-.7-1.2-4.3,1.7-1.6-1.4-2v-1.6l2.1,1.1h2.3l2.5-2.3.8.9h2.3l1-2.5,3.3.7,2.1-.9.4-2.3v.7h-.4l.2.3h0Z"/>
    <path class="st2" d="M151.6,253.7l3.5-.5-1.7,4.3.6,1.8-1,2.9-3.5-2-2.3-.7-6.4-2.7.6-2.9,5.4.5,4.7-.7h0Z"/>
    <path class="st2" d="M123.9,238.4l2.3-1.8,2.7,3.8-.6,7.2-2.1-.5-1.9,1.8-1.7-1.6v-6.8l-1.2-3.2h2.5s0,1.1,0,1.1Z"/>
  </g>
  <g id="DNK">
    <path class="st2" d="M129.3,160.6l-2.9.9-3.5-.7-1.9-3.2v-5.6l.6-1.6,1.2-1.6,4.1-.5,1.7-1.6,3.7-1.6v2.9l-1.4,1.8.6,1.6,2.5.9-1,2-1.4-.7-3.3,4.1,1.2,2.7h-.2v.2h0Z"/>
    <path class="st2" d="M140.6,154.5l1.4,2.7-2.7,4.5-4.7-3.2-.6-2.3,6.6-1.8h0Z"/>
  </g>
  <g id="GBR">
    <path class="st2" d="M55.6,166.9l-3.5-1.1h-2.9l1-2.9-1-2.9h3.9l5,3.2-2.5,3.8h0Z"/>
    <path class="st2" d="M69.8,169.4h0l.6-3.2-3.1-3.4h0l-5.6-1.1-1-1.6,1.7-2.5-1.4-1.6-2.5,2.7v-5.4c-.2,0-2.5-2.7-2.5-2.7l1.7-5.6,3.5-4.5,3.7.5,5.6-.5-5,6.1,4.7-.7h5l-1.2,4.5-4.1,5,4.7.5.4.7,4.1,6.5,3.1.9,2.9,6.3,1.2,2.3,5.6,1.1-.6,3.6-2.3,1.6,1.9,2.9-4.1,2.9h-6.2l-7.8,1.6-2.1-1.1-3.1,2.5-4.3-.7-3.3,2-2.5-1.1,6.6-5.9,4.1-1.1h0l-7.2-.9-1.2-2.3,4.7-1.8-2.5-2.9.8-3.6,6.8.5v-.5h.2Z"/>
  </g>
  <path id="SVN" class="st2" d="M147.2,207.5l3.7.5,2.3-1.4h3.9l.8-1.1h.8l.8,2-3.7,1.6-.4,2.3-1.7.7v1.6h-1.9l-1.7-.9-.8.9h-3.3l1-.7-1-2.3.4-2.7.6-.5h.2,0Z"/>
  <path id="EGY" class="st2" d="M252.7,343h-54.3v-39.9l-1.4-4.5,1.2-3.4-.6-2.5,1.7-2.7h6.2l4.3,1.4,4.5,1.6,2.1.9,3.5-1.8,1.9-1.6,4.1-.5,3.3.7,1.2,2.7,1-1.8,3.7,1.4h3.5c0,.2,2.3-1.1,2.3-1.1h0l2.5,8.1.4,1.4-1.2,2.3-1,4.1-1.2,2.9-1,.9-1.4-1.8-2.1-2.5-3.3-7.9-.4.5,1.9,5.9,2.9,5.6,3.5,8.6,1.7,2.9,1.4,3.2,4.1,6.1-.8.9v3.6l5.4,5,.8,1.1v.5h-.2l-.2-.3h0Z"/>
  <g id="JPN">
    <path class="st2" d="M733.4,248.1l-4.1,5.6v5.6l-1.7,4.5.8,2.7-2.5,3.8-5.8,2.7h-8.1l-6.6,6.5-3.1-2v-4.1l-8.3,1.1-5.4,2.7h-5.4l4.5,4.1-3.1,9.5-2.9,2.3-2.3-2.3,1-5-2.9-1.6-1.9-3.8,4.3-1.8,2.5-3.4,4.5-2.9,3.3-3.8,9.1-1.6,5,1.1,4.7-9.9,3.1,2.7,6.6-5.6,2.7-2.3,2.9-6.8-.8-6.3,1.9-3.4,5-1.1,2.5,7.7v5h.5Z"/>
    <path class="st2" d="M745.8,221.7l3.3-2.3,1,6.3-6.8,1.6-3.9,5.4-7.2-3.8-2.5,6.1h-5.2l-.6-5.4,2.3-4.3h5l1.2-7.9,1.4-4.3,5.4,5.9,3.5,1.8,3.3,1.1h-.2v-.2h0Z"/>
    
    <path class="st2" d="M692.3,276.2L689.8 279.6 690 282.1 692.9 283.7 694.1 280.5 696.4 279.1 698.3 280.9 700.8 277.5 700.2 275.7 696.9 274.6 695 276.9 692.3 276.2z"/>
  </g>
  <g id="CAN">
    <path class="st2" d="M1166.4,193.7h-.6l-8.9-5.4-3.3-2.5-8.3-2.3-2.5-5,.6-3.4-5.8-2.5-.8-4.5-5.6-4.1v-2.9l2.5-2.7v-3.4l-7.8-3.6-4.7-6.3-2.9-4.1-4.1-2.5-3.1-2.3-2.5-2.9-4.5,1.8-4.5,3.2-4.1-3.6-3.1-2.5-4.5-1.6h-4.5v-52.1h0l8.5,1.4,7.2,2.7,4.7.5,3.9-2.3,5.6-1.8,6.8.7,6.8-2.5,7.4-1.4,3.1,2.3,3.5-1.4,1-2.7,3.1.7,7.8,5,6.2-3.8.6,4.3,5.6-.9,1.7-1.6h5.6l7,2.7,10.7,2,6.4.9,4.5-.5,6.2,2.7-6.4,2.7,8.3,1.1,12.4-.7,3.9-.9,5,3.4,5-2.7-4.7-2.3,2.9-1.8h5.6l3.7-.9,3.7,1.4,4.5,2.9,5.2-.5,8.1,2.5,7-.9h6.6l-.4-3.4,4.1-.9,7,1.8v5.2l2.9-4.5h3.7l2.1-5.4-5-3.4-5.4-2.3.4-6.1,5.4-4.1,6,.9,4.5,2.5,6.2,6.3-4.1,2.7,8.5,1.1v5.6l6.2-4.3,5.4,3.6-1.4,4.1,4.3,3.8,4.7-4.1,3.3-4.7v-6.1l6.8.5,6.8.9,6.2,2.7v2.7l-3.1,2.9,3.3,2.9-.6,2.7-8.9,3.8-6.4.9-4.7-1.6-1.4,2.7-4.3,4.7-1.4,2.5-5.4,3.8-6.6.5-3.7,2.3-.4,3.6-5.4.7-5.6,4.5-5,6.3-1.9,4.3v6.3l6.4.9,2.1,5.2,2.1,4.3,6.4-1.1,8.5,2.5,4.5,2,3.3,2.7,5.8,1.6,4.7,2.3h7.6l5,.9-.8,4.7,1.4,5.6,3.3,6.1,6.8,5.2,3.5-1.8,2.5-5.6-2.5-8.8-3.3-2.9,7.4-2.5,5.2-3.8,2.5-3.8-.4-3.6-3.1-4.7-5.6-4.1,5.4-5.9-2.1-5-1.4-8.6,3.3-1.4,7.8,1.6,4.7.5,3.7-1.4,4.3,1.8,5.6,3.2,1.4,2.3,8.3.5v4.7l1.4,7,4.1.9,3.3,3.2,6.6-3.2,4.3-6.1,3.1-2.5,3.5,5,6,7,5,6.5-1.9,3.4,6,3.2,4.1,3.2,7.2,1.4,2.9,1.8,1.9,4.7,3.5.7,1.9,2,.4,6.3-3.3,2-3.3,2-7.4,2-5.8,4.5-7.8.9-9.7-1.1h-11.6l-3.9,4.3-5.8,2.5-6.6,7.2-5.4,5.2,3.9-.9,7.4-7.2,9.5-4.5,6.8-.5,4.1,2.7-4.3,3.6,1.4,5.9,1.4,4.1,6,2.7,7.6-.9,4.5-6.3.4,4.1,2.9,2-5.8,3.6-10.1,3.2-4.5,2.3-5.2,4.1-3.5-.5v-4.7l7.8-4.5h-7.4l-5.2.9-2.9-3.2v-7.4l-2.1-1.6-3.1.9-1.4-1.4-3.5,4.1-1.4,4.3-1.7,2.5-1.9.9h-1.4l-.4,1.6h-15.5l-2.1,1.1-4.7,4.1-.6.5-1.4,2.3h-8.7l-2.1.9.8,1.1.4,1.6v.7l-6,2.7-4.7.9-5.4,2.9h-1.2l-1.7-.9-.4-.7v-.7l1-2,2.1-2.9,1.2-3.2-.8-4.7-1-5-4.7-2.5.6-.9-.6-.7h-1.2l-.8-.9v-1.4l-1.2.7h-1.2v-.7l-.8-.5-.4-1.4-3.5-1.8-3.7-1.8-4.5-2-4.3-2-4.1,1.6h-1.4l-5.6-1.4-3.7.7-4.3-1.8-4.7-.9h-3.3l-1.4-1.4-.8-2.9h-1.7v2.3h-126.8l1.9-.7h0l-.3.2h0Z"/>
    <path class="st2" d="M1344.1,119.3l3.5-2.5h6.2v1.1l-5.4,3.2h-3.3l-1-1.6h0v-.2h0Z"/>
    <path class="st2" d="M1363.3,61.3l-5-2.9v-2l2.5-.5,10.5.7,7.8,2.9.4,1.6h-9.9c0-.2-5,.5-5,.5l-1.2-.5h0l-.2.2h0Z"/>
    <path class="st2" d="M1360.8,121.3l1.9-1.6h1.9l1.2,1.4-1.9,2.9-2.1-.5-1.2-1.6v-.5h0l.2-.2h0Z"/>
    <path class="st2" d="M1299.9,50.1l-2.5,2.3-6.6-.5-5.6-1.4,2.5-2.5,6.6-1.6,3.9,2,1.7,1.8h0v-.2h0Z"/>
    <path class="st2" d="M1298.9,36.1h-10.7l-1.2-1.6h9.3l3.3,1.1-.6.7h0v-.2h-.1Z"/>
    <path class="st2" d="M1285.7,29.3l5.4,2-1.2,2-6.8,1.1-3.7-1.4-2.1-2-.4-2.3h6l2.7.7h0l.2-.2h0Z"/>
    <path class="st2" d="M1325.1,53.5l-7.4-.7-12.2-1.8-1.7-2.9-.6-2.7-4.5-2.5-9.5-.7-5.4-1.8,1.7-2.3,9.5.5,5.2,1.8h9.1l3.9,1.8-1,2,5.2,1.4,2.9,1.4h6.2c0,.2,6.6.7,6.6.7l7.2-1.1,9.3-.5,7.4.5,5,2,1,2.3-2.9,1.6-6.8,1.1-5.8-.7-13.2.9h-9.3l.2-.2h0Z"/>
    <path class="st2" d="M1219.2,32.7l6.4.9-1.4,1.6-8.5,1.6-6.8-1.8,3.7-1.8,6.6-.7h0v.2h0Z"/>
    <path class="st2" d="M1220.7,29.1l6,1.1-5.6,1.1h-7.6v-.9l4.7-1.6h2.5v.2h0Z"/>
    <path class="st2" d="M1474,180.9l-2.5,3.4-3.1,4.7,2.9-1.8,3.1,1.1-1.7,2,4.1,1.6,2.1-1.4,4.5,1.8-1.4,4.1,3.3-.9.6,2.9,1.4,3.4-1.9,5h-2.1l-3.1-.9,1-4.5-1.2-.7-5.4,4.7h-2.7l3.3-2.7-4.3-1.4h-13.8l-.6-1.6,2.9-2-2.1-1.6,3.9-3.4,4.7-8.8,2.9-3.2,3.9-2h2.1l-.8,1.8h-.2v.2l.2.2h0Z"/>
    <path class="st2" d="M1344.5,104.7l5,1.8,5.2,1.8.4,2.7,3.3-.5,3.3,1.8-4.1,1.8-7-1.4-2.5-2.5-4.5,2.9-6.6,2.9-1.7-3.2-6.2.5,3.9-2.7.6-4.3,1.7-5,3.3.5.8,2.5,2.3-.9,2.7,1.4h.2v-.2h-.1Z"/>
    <path class="st2" d="M1368.9,63.7l4.3-2.3,10.1,2.7,6.4,2.7.6,2.5,8.5-1.4,4.7,3.6,11.1,2.3,3.9,2.3,4.3,5.2-8.5,2.5,10.7,3.6,7.2,1.1,6.6,5.2,7.2.5-1.4,3.8-8.1,6.3-5.6-2.3-7.2-5.4-6,.7-.6,3.2,4.7,3.2,6.2,2.5,1.9,1.6,2.9,5.4-1.7,4.1-5.8-1.6-11.6-4.5,6.4,4.7,4.7,3.4.8,2-12.4-2.3-9.9-3.2-5.6-2.7,1.7-1.6-6.8-2.9-6.6-2.7v1.6l-13.2.9-3.9-1.8,3.1-4.1h8.7l9.5-.9-1.4-2,1.7-2.7,6-5.4-1.2-2.5-1.9-1.8-7-2.7-9.3-1.8,2.9-1.4-5-3.4h-3.9l-3.7-2.3-2.5,1.6-8.3.7-16.7-1.4-9.7-1.6-7.4-.9-3.7-2,4.7-2.5h-6.4l-1.4-5.6,3.5-5,4.7-2.3,11.8-1.6-3.3,3.6,3.7,3.4,4.3-4.5,11.6-2.3,7.8,5.6-.6,3.6,9.1-1.6v.7h0l.3.2h0Z"/>
    <path class="st2" d="M1296,54.8h9.5l8.7,1.6-6.8,5-5.4,1.1-5,4.1h-5.2l-2.9-5v-2.7l2.5-2.3,4.5-1.6h0v-.2h.1Z"/>
    <path class="st2" d="M1166.1,44l7.8-4.1,9.5-3.6h7l6.2-.7-.6,4.3-3.5,2h-4.3c0,.2-8.5,2.7-8.5,2.7l-7.2.9-6.2-1.1v-.5h-.2Z"/>
    <path class="st2" d="M1121.1,165.8l4.3-.5-1.4,6.3,3.9,4.5h-1.9l-2.7-2.5-1.7-2.5-2.3-1.8-.8-2.5v-1.8l2.5.7h0Z"/>
    <path class="st2" d="M1245.6,26.2l8.9.7,12.4,2,3.5,2.7,1.9,2.3-7.4-.7-7.6-1.8h-10.1l4.3-1.8-5.6-1.4-.4-2h.2-.1Z"/>
    <path class="st2" d="M1163.3,196.4l-2.3.7-7.4-2.5-1.4-2-4.1-2-.8-1.6-4.7-.9-1.9-2.9.4-1.4,4.7,1.1,2.9.9,4.3.7,1.7,1.8,2.3,2.7,4.5,2.3,1.9,2.9h0v.2h0Z"/>
    <path class="st2" d="M1172.1,53l6.6,1.1h11.8c0,.2,4.5,1.8,4.5,1.8l5,2.3-5.8,1.4-11.1,3.8-5.8,3.8v2.5l-12,2.7-2.5-2.5-10.5-2.9,1.9-2.3,3.1-4.1,3.9-3.6-4.5-3.4,15.5-.9h0v.2h0Z"/>
    <path class="st2" d="M1235.1,45.4l4.1-.9h4.7l.8,2.9-2.9,2.7-15.5.9-11.6,2.5h-7l-.6-1.8,9.5-2.5-20.6.7-6.4-.9,6.2-5.4,4.3-1.6,12.8,1.8,8.1,3.4,8.1.5-6.6-5.2,4.1-2,4.7.7,1.7,2.7,1.9,2v-.5h.2Z"/>
    <path class="st2" d="M1240.9,60.7l5.2,2.3,2.9,5.4,1.4,3.8,7.6,2.7,8.3,2.7-.4,2.5-7.4.5,2.9,2-1.4,2-8.3-.9-7.8-1.6-5.4.5-8.7,1.8-11.6.9-8.1.5-2.5-2.5-6.2-1.6-4.1.7-5.6-4.3,3.1-.7,7-.9h6.4l6-.7-8.9-1.4-9.7.5h-6.4l-2.5-2.3,10.5-2.3h-7l-8.1-1.4,3.9-4.1,3.1-2.3,12.2-3.4,4.7,1.1-2.3,2.5,10.1-1.6,6.4,2.7,5.2-2.9,4.1,1.8,3.7,5.4,2.3-2.3-3.3-5.6,3.9-.9,4.5.9h0v.2l.3.3h0Z"/>
    <path class="st2" d="M1268.8,62.7l-5-3.6,5.4-2.7,5.6,1.1,8.1-.7,1.2,1.6-4.3,2.7,7,2.5-.8,5-7.4,2.3-4.3-.5-3.1-2-11.4-4.3v-1.8l9.5.7h-.4v-.2h0Z"/>
    <path class="st2" d="M1240.7,57.8h6.2l3.5.9-3.9,3.6-7.2-3.8,1.7-.7h-.3,0Z"/>
    <path class="st2" d="M1277.6,40.6l3.5,2.5v2.9l-1.9,4.1-7.6.7-5-.9v-3.2l-7.4.5v-4.3h4.5l6.8-1.8h6.4c0,.2.4-.5.4-.5h.3,0Z"/>
    <path class="st2" d="M1289,19.2l3.1-1.6,4.7-.5-2.1-1.4h10.7l5.8,2.7,7.6,1.1,7.4,1.1,3.7,3.6,5.6,1.8-6.4,1.6-8.5,4.1-8.1.5-9.5-.7-5-2.3v-2l3.7-1.6h-8.5l-5-1.8-2.9-2.5,3.1-2.5h.2v.2l.4.2h0Z"/>
    <path class="st2" d="M1309.2,12l6.8-1.1h5.4l9.1-1.1,6.8-2h5.6l5,1.8,3.5-2.9,6-.9,8.3-.7h14l2.5.5,13.2-.9,9.9.5,9.9.5,12.2.5,9.9.7,8.5,1.6v1.6l-11.4,2.5-11.1,1.1-4.1,1.1h9.9l-10.7,3.4-7.4,1.6-7.8,4.5-9.5.9-2.9,1.1-13.8.7,6.4.7-3.1.9,3.7,2.7-4.3,1.8-7,1.6-2.3,2.3-6.4,1.6.6,1.4h7.8v1.1l-12.2,3.4-12-1.6-13.4.9-6.8-.7h-8.7c0-.2-.6-2.9-.6-2.9l8.5-1.4-2.3-4.1,2.9-.5,12.2,2.5-6.2-3.6-7.4-1.1,3.7-2.3,8.1-1.4,1.2-2-6.4-2.3-1.9-2.9h12.6c0,.2,3.7.9,3.7.9l7.2-2-10.3-.7-16.1.5-8.1-1.8-3.7-2.3-5.4-1.6-1-1.8h-.6l-.2-.3h0Z"/>
    <path class="st2" d="M1384.2,91.8l-2.9,1.6h-5.2l-1.2-2.5,1.9-3.2,4.1-.7,3.5,1.6v2.5l-.4.7h.2Z"/>
    <path class="st2" d="M1288,80.5l2.7,2-2.9,2-6.2-1.6-3.7.7-6.2-2.5,3.9-1.8,3.3-2.5,5,1.6,2.7.9,1.4,1.1h0Z"/>
    <path class="st2" d="M1433.1,189l1.7-.5,6,1.4,4.7,2.3v.9h-2.1l-6-1.8-4.3-2.7v.5h0Z"/>
    <path class="st2" d="M1435.6,204.6l1.7,2.7,3.3.7h4.3l-2.3,2-1.7.5-5.8-2.3-1.2-1.8,1.7-1.8h0Z"/>
  </g>
  <g id="USA">
    <path class="st2" d="M1166.4,194.7h126.8v-2.3h1.7l.8,2.9,1.4.9h3.3l4.7,1.1,4.3,1.8,3.7-.7,5.6,1.4h1.4l4.1-1.6,4.3,2,4.5,2,3.7,1.8,3.5,1.8.4,1.4,1,.5v.5h1l.8-.7v1.4l1,.9h1.2l.6.7-.6.9,4.7,2.5,1,5,.8,4.7-1.2,3.2-2.1,2.9-1,2v.7l.4.7,1.7.9h1.2l5.4-2.9,4.7-.9,6-2.7v-.7l-.4-1.6-.8-1.1,2.1-.9h8.7l1.4-2.3.6-.5,4.7-4.1,2.1-1.1h15.5l.4-1.4h1.4l1.9-1.1,1.7-2.5,1.4-4.3,3.5-4.1,1.4,1.4,3.1-.9,2.1,1.6v7.4l2.9,3.2.8,1.8-5,2.7-4.7,1.8-4.7,1.6-2.5,3.4-.8,1.4v2.9l1.4,2.9h1.9l-.4-1.8,1.4,1.1-.4,1.6-3.1.9h-2.3l-3.3.9h-2.1l-2.7.5-3.9,1.6,6.8-1.1,1.4,1.1-6.4,1.6h-2.9v-.7l-1.2,1.6h1.4l-1,4.3-3.3,4.3-.4-1.4h-1l-1.4-1.6,1,2.9,1.2.9v2l-1.4,2.3-2.5,4.5h-.4l1.4-4.1-2.3-2-.6-4.5-.8,2.5,1,3.6-3.1-.9,3.1,1.8v5.2l1.4.5.4,2,.6,5.6-2.9,4.1-4.7,1.6-3.1,3.2-2.3.5-2.3,2-.6,1.8-5,3.6-2.5,2.7-2.3,3.2-.6,3.8.8,3.8,1.4,4.7,2.1,3.8v2.5l2.3,6.3v3.6l-.4,2.3-1.2,3.4-1.4.7-2.3-.7-.8-2.5-1.7-1.4-2.5-4.7-2.1-4.3-.6-2.3.8-3.6-1.2-2.9-3.5-4.7-1.9-.9-4.5,2.5h-.8c0-.2-2.3-2.9-2.3-2.9l-2.9-1.4-5.2.7-4.1-.7-3.5.5-1.9.9.8,1.6v2.3l.8,1.1-.8.7-1.7-.9-1.7,1.1h-3.3l-3.5-3.2-3.9.7-3.3-1.4-2.9.5-3.9,1.4-4.1,4.1-4.5,2.5-2.5,2.7-1,2.5v6.5l.8,1.8h-1.9l-3.3-1.1-3.5-1.8-1.2-2.5-1-3.8-2.7-3.2-1.7-3.2-2.3-3.8-3.3-2.3h-3.7l-2.9,4.5-3.7-1.6-2.5-1.6-1.2-2.9-1.4-2.9-2.7-2.5-2.3-1.8-1.7-2h-7.8v2.3h-12.8l-10.5-3.8-6.8-2.7.4-1.1-5.8.7-5.2.5-.8-2.7-2.9-3.2-2.1-.7-.4-1.6h-2.5l-1.7-1.8-4.3-.5-1.2-.9-.6-2.9-4.5-5.6-3.7-7.7v-1.4l-1.9-1.8-3.5-4.7-.6-4.5-2.5-2.9,1-4.5v-4.7l-1.7-4.3,1.9-5.2.6-5,.6-5-.8-7.4-1.4-4.7-1.4-2.5.6-1.1,6.6,1.8,2.5,5.2,1.2-1.6-.6-4.5-1.7-4.5v1.1h-.2l.8-.3Z"/>
    <path class="st2" d="M1017.3,354.6l.8.5.8.7,1.2,2h0c0,.2-1.9,1.6-1.9,1.6l-1.4.9-.6.9-1-.7v-1.6l-.6-2v-.7c.2,0,1-.9,1-.9v-1.1c-.2,0,0-.5,0-.5h.4l1.7,1.1h-.4v-.2h0Z"/>
    <path class="st2" d="M1014.6,350.8l-.4.7-1.4.5-.8-1.1-.6-.5h0c0-.2.4-.9.4-.9l1.7.5,1.2.9h-.1Z"/>
    <path class="st2" d="M1011.1,348.5v.7h-2.7l.4-.7h2.3Z"/>
    <path class="st2" d="M1005.3,345.6l.4.5,1.2,1.8h-.2c0,.2-.4.2-.4.2h-1.7l-.6-1.4h0l1.2-.9h0v-.2h0Z"/>
    <path class="st2" d="M999.1,342.7v1.4l-.4.5-1.4-1.1v-.5c.2,0,1-.5,1-.5h1l-.2.2h0Z"/>
    <path class="st2" d="M966.7,131.8l3.7.5.4,2-2.9.9-3.1-1.1-2.7-1.6,4.5-.9h0v.2h0Z"/>
    <path class="st2" d="M1027.2,145.1l3.1.5,1.9,1.8-3.9,2.7-4.5,2-2.3-1.4-.6-2.5,4.1-2,2.5-.9h-.2v-.2h-.1Z"/>
    <path class="st2" d="M1083.2,78.2h0v52.1h4.5l4.5,1.8,3.1,2.5,4.1,3.6,4.5-3.2,4.5-1.8,2.5,2.9,3.1,2.3,4.1,2.5,2.9,4.1,4.7,6.3,7.8,3.6v3.4l-2.5,2.7-2.5-2-4.1-1.8-1.2-4.7-6-4.5-2.5-5.2-4.3-.5h-7.2l-5.4-1.8-9.5-5.6-4.3-1.1-8.1-2-6.4.5-9.1-2.5-5.4-2.5-5.2,1.1.8,3.8-2.5.5-5.4,1.1-3.9,1.8-5.2,1.1-.6-3.2,2.1-5.4,5-1.8-1.2-1.4-5.8,3.2-3.1,3.6-6.6,3.8,3.3,2.7-4.3,4.1-5,2.3-4.5,1.8-1,2.5-7.2,2.9-1.4,2.5-5.4,2.5-3.1-.5-4.3,1.6-4.5,1.8-3.7,1.8-7.8,1.6-.6-.9,5-2.5,4.5-1.8,5-2.9,5.8-.7,2.3-2.3,6.4-3.4,1-1.1,3.3-2,.8-4.3,2.3-3.2-5.2,1.6-1.4-.9-2.5,2-2.9-2.7-1.2,2-1.7-2.7-4.5,2.3h-2.9l-.4-3.4.8-2-2.9-2-6,1.1-3.9-2.5-3.1-1.4v-3.2l-3.5-2.3,1.9-3.2,3.7-3.2,1.7-2.9,3.7-.5,3.1.9,3.7-2.7,3.3.5,3.5-1.8-.8-2.5-2.5-.9,3.3-2h-2.9l-4.7,1.4-1.4,1.1-3.7-1.1-6.4.7-6.6-1.4-1.9-2.3-5.8-3.2,6.4-2.3,10.1-2.7h3.7l-.6,2.7h9.7l-3.7-3.6-5.6-2-3.3-2.7-4.3-2.3-6.2-1.8,2.5-2.9h8.1l5.8-2.7,1-2.7,4.7-2.7,4.5-.7,8.7-2.5,4.1.5,7-2.9,7,1.1,3.3,2.5,2.1-1.1,7.6.5v1.4c-.2,0,6.8.9,6.8.9l4.7-.5,9.7,1.8,8.9.5,3.5.7,6-.9,7,1.6,5,.9-1.2-.7h0Z"/>
    <path class="st2" d="M942.6,113.1l2.9,1.1,2.9-.7,3.7,1.6,4.5.7-.4.7-3.5,1.1-3.5-1.1-1.7-.9h-5.2v-2.5s.3,0,.3,0Z"/>
  </g>
  <path id="MEX" class="st1" d="M1192.4,284.6l5.2-.5,5.8-.7-.4,1.1,6.8,2.7,10.5,3.8h12.8v-2.3h8.1l1.7,2,2.3,1.8,2.7,2.5,1.4,2.9,1.2,2.9,2.5,1.6,3.7,1.6,2.9-4.3h3.7l3.3,2,2.3,3.8,1.7,3.2,2.7,3.2,1,3.8,1.2,2.5,3.5,1.8,3.3,1.1h1.9l-1.9,4.7-.8,4.1-.4,7.4-.4,2.7.8,2.9,1.4,2.7.8,4.3,3.1,4.1,1,3.2,1.9,2.7,5,1.6,1.9,2.3,3.9-1.6,3.5-.5,3.5-.9,2.9-.9,2.9-2.3,1-3.2.4-4.7.8-1.6,3.1-1.4,4.7-1.4h6.8c0-.2,1,.9,1,.9v2.7l-2.7,3.2-1,3.4.8.9-.6,2.5-1.2,4.3-1.2-1.4h-1.9l-1.7,3.4-.8-.7h-.6v1.1h-8.5v3.2h-2.1l1.7,1.8,1.7,1.4.4,1.1.8.5v1.8h-6l-2.3,4.5.6,1.1-.4,1.4v1.6l-5.4-5.9-2.3-1.8-3.7-1.4-2.5.5-3.7,2-2.3.5-3.3-1.4-3.5-1.1-4.3-2.5-3.5-.7-5.2-2.5-3.9-2.7-1.2-1.6h-2.5c0-.2-4.7-2-4.7-2l-1.9-2.5-5-3.2-2.3-3.4-1-2.7,1.4-.5-.4-1.6,1-1.4v-1.8l-1.4-2.5-.4-2.3-1.4-2.7-3.9-5.4-4.5-4.3-2.3-3.4-3.9-2.3-.8-1.4.6-3.4-2.3-1.4-2.7-2.7-1.2-3.8-2.5-.5-2.7-2.9-2.1-2.7v-1.8l-2.7-4.1-1.7-4.3v-2l-3.3-2.3h-1.4c0,.2-2.7-1.4-2.7-1.4l-.8,2.3.8,2.7.4,4.1,1.7,2.3,3.3,3.8.8,1.4.6.5.6,2h.8l.8,3.4,1.4,1.4,1,2,2.9,2.7,1.4,5.2,1.4,2.5,1.2,2.5v2.9h2.5l1.9,2.5,1.7,2.5v.9l-2.1,2h-.8l-1.2-3.4-2.9-3.2-3.3-2.7-2.3-1.4v-4.1l-.6-2.9-2.3-1.8-3.1-2.5-.6.7-1.2-1.4-2.9-1.4-2.7-3.2.4-.5h1.9c0,.2,1.7-1.8,1.7-1.8v-2.5l-3.3-3.8-2.7-1.6-1.7-3.4-1.7-3.6-2.1-4.5-1.9-5,.4-.7h0l.4,1h0Z"/>
  <g id="CHL">
    <path class="st2" d="M1414.3,755.4v12.4h7.6l-1.4,2.5-3.9,1.8h-2.3l-2.7-.7-3.3-1.6-4.7-.9-5.8-3.2-4.7-2.9-6.4-6.1,3.7,1.1,6.4,3.6,6,2,2.3-2.5,1.4-3.8,4.1-2.3,3.3.7h.4v-.2h0Z"/>
    <path class="st2" d="M1410,561.7l2.3,3.8.6,4.1,2.5,2.3-1.4,5.4,2.5,6.3,1.9,7.7,3.3-.7.6,1.4-1.7,5.6-5,2.7v9.2l-.8,1.8,1.4,2.3-3.3,3.4-2.9,5.2-1.7,5,.4,5.4-2.9,5.6,2.1,9.5,1.2.9v5.2l-2.7,5.4v4.5l-3.3,3.6v5.2l1.4,5.4-2.7,2-1.2,5-1,5.6.8,6.8-1.9,1.1,1,6.3,2.1,2-1.4,2.3,2.1,1.1.4,2-2.1,1.1.4,3.2-1.7,7.2-2.5,4.7.6,2.7-1.4,3.6-3.5,2.5.4,5.9,1.7,2,3.1-.5v4.1l1.9,3.2,11.1.7,4.3.9h-4.1l-2.3,1.4-4.1,2-.8,5.2h-1.9l-5.2-1.6-5.2-3.8-5.8-3.2-1.4-3.4,1.2-3.2-2.3-3.6-.6-9.5,1.9-5.4,5-4.3-7-1.6,4.3-5,1.7-9.2,5.2,2,2.5-11.5-3.1-1.6-1.4,7-2.9-.7,1.4-7.9,1.7-10.1,2.1-3.8-1.2-5.4-.4-6.3h1.9l2.9-9,3.1-8.8,1.9-8.1-1-8.3,1.4-4.5-.6-6.8,2.7-6.8.8-10.6,1.4-11.5,1.4-12.4-.4-9-1-7.9,2.3-1.4,1.2-2.9h-.2v-.2h-.1Z"/>
  </g>
  <g id="AUS">
    <path class="st2" d="M758.8,690l2.7.5v6.5c.2,0-1.2,2-1.2,2l-.4,4.5-1.7-1.6-3.1,3.8h-1c0-.2-2.9-.5-2.9-.5l-2.9-4.7-.6-3.6-2.7-4.7v-2.5l3.1.5,4.3,1.8,2.5-.7,3.5-1.1h.4v-.2h0Z"/>
    <path class="st2" d="M660.3,642.5l-4.7,2.7-3.9,1.4-.8,2.9-1.7,2.3h-3.9l-2.9.7-4.1-1.1-3.3.7h-3.1c0,.2-2.7,3.2-2.7,3.2h-1.4c0-.2-2.3,1.4-2.3,1.4l-2.3,1.8h-6.4l-5-3.6-2.5-1.1v-3.2l2.5-.7.8-1.4v-2l.4-3.8-.4-3.2-2.5-5.6-.8-3.2v-3.2c.2,0-1.7-3.6-1.7-3.6v-1.6l-2.1-2.3-.6-4.3-2.7-4.3-.6-2.3,2.1,2.5-1.7-5.2,2.3,1.6,1.4,2.3v-2.9l-2.3-4.3-.4-1.8-1-1.6.4-3.2,1-1.4.6-2.7-.4-3.2,1.9-4.1.4,4.3,1.9-3.8,3.7-1.8,2.3-2.3,3.5-2,2.1-.5,1.2.7,3.7-2,2.7-.7.6-1.1,1.2-.5h2.5l4.7-1.6,2.5-2.5,1.2-2.9,2.7-2.7v-2.3c.2,0,.4-2.9.4-2.9l3.1-4.7,1.9,4.7,1.9-1.1-1.7-2.7,1.4-2.7,2.1,1.1.6-4.3,2.5-2.7,1-2.3,2.3-.9v-1.6l2.1.7v-1.4l2.1-.9,2.3-.7,3.3,2.5,2.5,3.2h2.9l2.9.7-1-2.9,2.3-4.5,2.1-1.4-.6-1.4,2.1-3.2,2.7-2,2.3.7,3.9-1.1v-2.9l-3.5-1.8,2.5-.9,3.1,1.4,2.5,2.3,3.9,1.4,1.2-.7,2.9,1.8,2.7-1.6,1.7.5,1-1.1,2.1,2.7-1.2,2.9-1.7,2.3h-1.7l.6,2.5-1.4,2.7-1.7,2.7.4,1.6,3.7,2.9,3.5,1.8,2.3,2,3.3,3.2h1.2l2.5,1.4.6,1.8,4.3,1.8,3.1-1.8.8-2.9.8-2.5.6-2.9,1.4-4.5-.6-2.7.4-1.6-.6-3.2.6-4.1.8-1.1-.6-1.8,1-2.9.8-2.9v-1.6l1.9-2,1.2,2.7.4,3.4,1,.7v2.3c.2,0,1.9,2.7,1.9,2.7l.4,3.2v2l1.4,4.3,2.9-2,1.4,2.3,2.3,2.3-.4,2.5,1,4.7.6,2.7,1.2.7,1.2,4.7-.4,2.9,1.4,3.8,5,2.9,3.3,2.7,3.1,2.5-.6,1.4,2.7,3.4,1.9,6.1,1.9-1.1,1.9,2.5,1-.9.8,5.9,3.3,3.4,2.1,2,3.5,4.5,1.2,4.5v6.5l2.1,4.7v5c-.2,0-1,2.5-1,2.5l-1.2,5v3.2l-.8,4.1-2.1,5-3.3,2.7-1.7,4.3-1.4,2.7-1.4,4.7-1.9,2.7-1.2,4.1-.6,3.8v1.8c.2,0-2.5,2-2.5,2h-5.2l-4.1,2.5-2.1,2.3-2.7,2.5-3.7-2.5-2.9-.9.6-2.9-2.5,1.1-3.9,4.1-3.9-1.6-2.7-.9-2.7-.5-4.3-1.6-2.9-3.4-.8-4.3-1-2.7-2.3-2.3-4.3-.7,1.4-2.7-1-4.1-2.3,3.8-4.1.9,2.5-2.9.6-3.2,1.9-2.7-.4-4.1-3.7,4.7-2.9,1.8-1.7,4.3-3.5-2.3v-2.9l-2.7-4.1-2.5-2,.8-1.4-5.8-3.4h-3.3l-4.3-2.9-8.3.5-6,2-5.2,1.8-4.3-.5v-.5h-.2.1Z"/>
  </g>
  <path id="ZAF" class="st3" d="M157.8,622.4l2.3-2.7,1.9,1.6.8,2.5,2.1.5,2.9,1.1,2.5-.5,4.1-2.9v-20.3l1.2.9,2.7,5.2-.4,3.4,1,2,3.3-.5,2.3-2.5,2.1-1.6,1-2.7,2.3-1.4,1.9.7,2.3,1.6h3.7c0,.2,2.9-1.1,2.9-1.1l.4-1.8.8-2.7,2.5-.5,1.4-2,1.4-3.6,4.1-4.1,6.4-4.1h1.9l2.3.9,1.4-.7,2.5.5,2.3,7.7,1.2,3.8-.8,6.1.4,2-2.3-1.1-1.2.5-.4,1.6-1.2,2v2l2.7,2.9,2.7-.7.8-2.5h3.5l-1,4.1-.6,4.5-1.2,2.5-3.1,2.7-.8.9-1.9,2.7-1.2,2.9-2.7,4.1-5.2,5.6-3.3,3.4-3.5,2.5-4.7,2.3h-2.3c0,.2-.6,1.8-.6,1.8l-2.9-.9-2.3,1.1-5-1.1-2.7.7h-1.9c0-.2-4.7,1.8-4.7,1.8l-3.9.9-2.9,2h-2.1l-1.9-1.8h-1.7l-2.1-2.5v.7l-.8-1.6v-3.2l-1.4-3.6,1.4-.9v-4.3l-3.1-5.2-2.3-4.7h0l-3.3-7.2h0v.2h0ZM215.6,624.4l-2.1-1.8-2.1,1.1-2.5,2.3-2.5,3.6,3.5,4.3,1.7-.5.8-1.8,2.5-.9.8-1.8,1.4-2.7-1.7-1.6h0v-.2h.2Z"/>
  <path id="NGA" class="st1" d="M96.2,430.8v-12.4l.8-3.4,1.4-1.8,2.3-3.4-.4-1.6.8-2.3-1-3.4v-1.8l.4-5,1.2-2.3.6-3.2,1.2-1.1,5-.7,4.5,2,1.7,2h2.3l2.1-1.4,5.6,2.9h2.3l2.7-2.5h2.7l1.2-.7h2.5c0,.2,3.5,2,3.5,2l3.5-3.2h1l3.1,6.3h.8l1.9,2-.4.9v1.8l-4.1,4.3-1.2,3.6-.6,2.9-1,1.4-1,3.8-2.5,2.3-.8,2.7-1,2.3-.4,2.3-3.1,1.8-2.5-2.3h-1.7l-2.7,3.4h-1.2l-2.3,5.4-1.2,3.8-4.7,2h-1.7c0-.2-1.9.9-1.9.9h-3.7l-2.5-3.6-1.4-4.1-3.3-3.6h-7.6l1,.5h0l-.2.5h0Z"/>
  <path id="PRT" class="st1" d="M41.6,233l1.7-1.4,1.9-.9,1.2,2.7h2.7l.8-.7h2.7l1.2,2.9-2.1,1.6v4.3l-.8.9v2.7l-2.1.5,1.9,3.4-1.2,3.6,1.7,1.6-.6,1.6-1.7,2,.4,1.8-1.9,1.4-2.5-.9-2.5.7.6-4.3-.4-3.4-2.1-.5-1-2,.4-3.6,1.9-2,.4-2.3,1-3.4v-2.3l-1-2v-1.8h-.6v-.2h0Z"/>
  <path id="IRL" class="st1" d="M54.6,166.9l.8,3.8-3.5,5-8.1,3.2-6.4-.9,3.7-5.9-2.5-5.6,6.2-4.3,3.5-2.5,1,2.9-1,2.9h2.9l3.5,1.1h0l-.2.2h.1Z"/>
  <path id="SWE" class="st1" d="M134.4,138.2l2.1-3.2,3.7-3.8,1.4-6.5-2.9-2.7v-7.4l2.7-5.2h4.5l1.7-2-1.7-1.8,7-7.7,4.5-6.1,3.1-3.8h4.3l1.2-3.2,8.7.9.6-3.6h2.9l6.2,2.5,7.2,3.8v8.6l1.7,2.3-7.8,1.6-4.5,3.8.8,3.4-7.2,4.5-8.9,4.7-3.3,7.7,3.3,3.8,4.3,3.2-4.1,6.3-4.7,1.4-1.7,9.2-2.7,5.2-5.6-.5-2.5,4.3h-5.4l-1.4-5-3.9-6.3-3.5-7.9v-.5h-.2,0Z"/>
  <path id="CZE" class="st1" d="M151.6,182l2.1,1.8,3.5.5v1.6l2.3,1.1.6-1.4,3.1.7.4,1.8,3.3.5,2.1,2.7h-1.4l-.6.9h-1v1.6h-1v.7l-1.7.7h-2.1l-.6,1.1-2.1-1.1h-2.1l-3.5-1.4-1.7.5-2.5,2.3-3.3-1.8-2.5-2.5-2.3-1.4-.4-2.3-.8-1.6,3.3-1.1,1.7-1.4,3.3-1.1,1-1.1,1.2.7,2.1-.7h-.4v-.2h0Z"/>
  <g id="TUR">
    <path class="st2" d="M203.4,233.4l4.7-1.8,3.9.7.6,2,3.9,1.8-.8,1.4h-5.4l-1.9,2-3.9,2.9-1.4-2.5v-1.1l1.2-.7,1.4-3.4-2.3-1.4h-.2.2Z"/>
    <path id="_Path_-3" class="st1" d="M287.9,259.1l-2.3.9-1.7-1.4-5.4-.7-2.1.9-5.2.9h-2.5l-5.4,2h-3.7l-2.5-1.1-5,1.6-1.4-1.1v3.2l-1.4,1.1-1.2,1.1-1.7-2.5,1.7-2-2.9.5-3.7-1.4-3.1,3.2-7,.7-3.7-2.9h-5l-1,2-3.1.7-4.3-2.9h-5l-2.7-5.4-3.3-3.2,2.3-4.3-2.9-2.7,5.2-5.2h7l1.9-4.5,8.7.7,5.6-3.6,5.4-1.6h7.6l8.1,3.8,6.6,2,5.4-.9,3.9.5,5.4-2.9h5l4.3,2.5.8,2-.4,2.7,3.5,1.4,1.9,1.6-3.1,1.6,1.4,6.3-.8,1.8,2.5,4.5h-.6v.2h0Z"/>
  </g>
  <g id="MYS">
    <path class="st2" d="M541,428.7l.8-.9,3.7,2.5.4,2.9,3.1-.7,1.4-2.3,1,.5,2.7,3.4,1.9,3.6v3.6c.2,0-.2,2.5-.2,2.5l.4,1.8.4,3.4,1.7,1.6,1.9,5v1.8l-3.3.5-4.3-4.1-5.4-4.3-.6-2.7-2.7-3.6-.6-4.5-1.7-2.9.4-4.1-1-2.3v-.7h0Z"/>
    <path class="st2" d="M622.5,441.5l-3.9-.9h-5.2l-1.7,6.3-1.9,2-2.3,7.7-3.7,1.1-4.3-1.6-2.3.5-2.7,2.7-2.9-.5-2.9,1.1-3.1-3.2-.8-3.6,3.3,1.8,3.5-1.1,1-4.7,2.1-1.1,5.4-1.1,3.3-4.3,2.3-3.4,2.1,2.9,1-1.8h2.3v-3.4c.2,0,.2-2.7.2-2.7l3.7-3.8,2.3-4.3h1.9l2.3,2.7v2.5l3.3,1.6,3.7,1.6-.4,2.3h-3.1c0,.2.8,2.9.8,2.9l-3.3,1.8h0Z"/>
  </g>
  <g id="CHN">
    <path class="st2" d="M584.9,364l-3.7-1.8v-4.7l2.1-2.5,5-1.6h2.7l1,2.3-2.1,2.5-1,3.2-3.9,2.7h0Z"/>
    <path id="_Path_-4" class="st1" d="M449.6,230.2l-.4-3.2,3.1-1.4-4.1-9.7,9.1-2.3,2.3-1.1,3.3-9.9,9.1,1.8,2.5-2.5v-5.6c.2,0,4.1-.5,4.1-.5l3.5-3.6,1.9-.5,1.2,3.8,3.9,2.9,6.6,2,3.1,4.5-1.9,6.5,1.7,2.5,5.4.9,6.2.7,5.6,3.4,2.9.7,2.1,5.2,2.7,3.2h5.2l9.6,1.1,6-.7,4.5.9,6.8,3.4h5.6l2.1,1.8,5.4-2.9,7.4-2h6.8l5.4-2.3,3.3-2.9,3.1-1.8-.8-1.8-1.4-2,2.5-3.6,2.5.5,4.7,1.1,4.5-2.9,7-2.3,3.3-3.6,3.3-1.6,6.6-.7,3.7.7.4-2-4.1-3.8-3.7-1.8-3.5,2-4.5-.9-2.7.7-1.2-2.3,3.3-5.4,2.3-4.1,5.6,2,6.4-3.4v-2.5l4.1-5.9,2.5-1.8v-3.2l-2.5-1.4,3.7-2.7,5.8-.9h6l6.8,1.6,4.1,2,2.9,5.6,1.7,2.5,1.7,3.4,1.7,5.4,8.1,1.8,5.4,3.8,1.9,5.2h7l3.9-2.3,7.6-1.6-2.5,5-1.9,2-1.7,6.1-3.1,5.4-5.6-.9-3.9,2,1.2,4.7-.6,6.5h-2.3v2.9l-2.9-3.2-1.9,3.2-7,2.5.8,2.9h-3.9l-2.3-2-3.1,3.8-5,2.9-3.7,3.6-6.4,1.6-3.3,2.5-5,1.6,2.5-2.5-1-2.3,3.7-3.6-2.5-2.9-3.9,2-5.2,3.8-2.9,3.6h-4.5l-2.3,2.9,2.5,3.8,3.7.9v2.5l3.7,1.6,5.2-3.8,4.1,2.3h2.9l.8,2.9-6.4,1.6-2.1,2.9-4.3,2.7-2.3,3.8,5,2.9,1.9,5.4,2.7,5,3.1,4.3v4.1l-2.9,1.6,1,2.9,2.7,1.8-.6,4.5-1.2,4.3-2.5.5-3.3,6.1-3.7,7.2-4.3,6.5-6.4,5.2-6.4,4.7-5.2.7-2.9,2.5-1.7-1.8-2.5,2.7-6.4,2.7-4.7.9-1.7,5.9h-2.5c0,.2-1.2-3.6-1.2-3.6l1-2.3-6.2-1.8-2.1.9-4.5-1.4-2.3-2.3.8-3.2-4.1-1.1-2.3-2-3.9,2.9-4.5.7h-3.7l-2.5,1.4-2.3.9.6,6.3h-2.5l-.4-1.4v-2.3l-3.5,1.6-2.1-.9-3.5-2,1.4-4.5-2.9-1.1-1-5.2-4.7.9.6-6.5,4.3-4.5v-8.8l-2.1-1.4-1.4-3.2-2.7.5-5-.9,1.7-2.3-2.1-3.4-3.3,2.3-3.9-1.4-5.2,3.6-4.1,4.1-3.7.7-2.1-1.6h-2.5l-3.3-1.4-2.5,1.4-3.1,4.1-.4-4.3-2.9,1.1-5.4-.5-5.2-1.4-3.7-2.5-3.5-1.1-1.4-2.7-2.5-.9-4.5-3.6-3.7-1.8-1.9,1.4-6.4-3.8-4.5-3.6-1.2-6.1,3.3.7v-2.7l-1.7-2.9.4-4.5-5-6.5-7.4-2.3-1.4-4.3-3.3-2.5-.8-1.6-.6-3.2v-2.3l-2.7-1.4-1.4.5-1.2-5.2,1.2-1.4-.6-1.4,4.3-2.7,3.1-1.1,4.7.7,1.7-3.6,6-.7,1.7-2.3,7.2-2.9.6-1.4h-.6l-.2.9h0Z"/>
  </g>
  <path id="KOR" class="st1" d="M660.3,256v-.5h2.3l1.9-2.5h3.3l1.9-.7.6-1.4,3.9,6.5,1,3.6v6.3l-1.7,2.9-4.1,1.1-3.7,2.3-4.1.5-.4-2.9.8-4.1-2.1-5.6,3.5-.9-3.1-4.7h0Z"/>
  <g id="RUS">
    <path class="st2" d="M512.1,16.7l9.9-1.4,8.9,2.7,10.5,5.4-1,5-9.9.7-12.8-1.6-7.6-2-3.5-4.1-6.2-1.1,12-3.8h-.2v.2h-.1Z"/>
    <path class="st2" d="M553.6,26.4l11.6,3.2-1.4,2.3-25.8,2.3,8.3-7.2,3.7-.7,3.5.5h.2v-.4h0Z"/>
    <path class="st2" d="M718.3,43.8h12.2c0,.2,16.5,3.2,16.5,3.2l-3.5,4.1h-16.9l-7.6,1.1-9.1-3.6,2.5-3.8,6-1.1h0v.2h-.1Z"/>
    <path class="st2" d="M761.3,48.1l11.6,1.4-5.4,2.3-7.2-.5-8.5-2.3,1-1.8,8.5.9h0Z"/>
    <path class="st2" d="M723.1,59.1l4.3-2.3,5.8-.5,6.4,2,.6,1.6h-7l-9.3-.7h-.8v-.2h0Z"/>
    <path class="st2" d="M327.9,56.9l10.9-4.7-1.2-2.5,10.3-2.9,15.1-3.6,15.3-1.1,7.8-2,8.9-.7,3.1,2.3-3.1,1.8-16.1,2.7-14,2.7-14.2,5.2-6.8,5.4-7.2,5.4,1,4.5,8.7,4.5-2.7.5-14.9-.7-1.2-2.5-8.3-1.6-.6-2.9,4.7-1.1v-2.9l8.9-4.7-4.1-.7h0l-.2-.2v-.2h0Z"/>
    <path class="st2" d="M231,77.7l-5.6,2.3-7.3,2.1-3.2.5-.7,3.7,7,3.6-4.3,4.1,5.4,6.6-3.1,4.4,4.1,4.1-1.9,3.6,6.8,4.1-1.7,2.4-14.2,10.2,4.7,2.7-5.2,3.2.6.9-3.3,3.2,1.4,5.2-2.1,1.8,2.3,1.4.4,2.7,1.4,3.2,4.7,1.4.6,1.4,2.5-.7,4.5,1.4.4,2.5-1,1.6,2.9,3.6,1.7.9v.9l3.1.9,1.2,1.6-1.9,1.1h-3.7l-.8.5,1,1.8,1,3.8h1.7l1.2-.9s3,.3,3.5,0,2.6-.5,2.6-.5l2.9,3.2-1.2,1.1.4,2h3.7l1.4,2.5v1.1l5.8,2,1.1.5,3.1-.8,3.3,2.4h2.7l5.7,1.3v1.6l-1.9,2.9,1,2.9-.8,1.8-4.3.5-2.5,1.6v3.2l4.1-1.6v1.1l-6.8,2.3,2.5,2.3-3.6,4.6-3.1.9,3.6,3.3,5.2,2,5.8,4.7.6-.7,3.5.8,7.2,1,6.2,2.7.8,1.1.3.4,3.4-1.1,3.5.9,1.4,2.3,3.2,1.6h.9l3.1,3.4,2.8.5,3.2-3.5-5.5-7.2.4-3.4-3.9-5.4,4.3-5.4,4.3-.9,2.1-3.4.9.5,1-.5-2.3-.9.4-2.9-2.9-3.6h-3.3l-3.9-3.8,2.7-4.3-1.2-1.1,3.5-5.7,5,3.2.5-4.5,9.5-6.1h7.2l15.5,6.1,4.7-2.5h6.4l6.5,3.2,1.2-1.7h6.4l1.2-2.7-7.2-3.7,4.3-2.7-.8-1.8,4.3-1.2-3.5-3.9,2.1-1.8,17.1-2,2.3-1.4,11.4-2,4.1-2.3,7.3,1,1.6,6.3,5.5-1.9,4.8,1.5-.4,2.9h5.3c0,.1,8.6-3.8,8.6-3.8l5.9,4.5,10.1,14,.6.8,2.9-3.4,6.1,3.5,6.9-1.7,1.5.6,2.3,3.2,3.4,1.1,2.1,2.7,5.8-.8,2.6,3.7,6.5-1.1,8.7-4.7,7-2.5,3.9,1.8h4.7l3.1,2.7h4.5l6.6,1.6,5.2-4.7-1.9-3.2,4-4.7,5.2,2.3,4.1.7,5.4,1.4.9,4.1,6.3,2.2,4.3-1,6-.8,4.5.7,4.5,2.7,2.7,2.7h4.3l5.8.9,4.4-1.4,5.7-.9,6.6-3.8,2.7.7,2.5,1.8,4.5-.4,6.1,1.5,7.5-3.8.2-2.6,4.1-5.9,2.5-1.8v-3.2l-2.5-1.4,3.8-2.7,5.1-.6h5.4l6.5,1.6,3.9,1.9,4.6,7.9,1.9,3.7,1.7,5.4,8.1,1.8,5.4,3.8,1.9,5.2h8.1c0,.1,4-2.7,4-2.7l6.4-1.2-2.5,5-1.9,2-1.8,6.2-2.7,4.6-4.6-.7-5,2.3.9,4.9-.6,6-2,.5v2.9l1.4,1.2.9-2.8,6.2-4.1,2.9,2.5h2.9l5.8-3,15.7-16.2,1.6-4,6.6-7.7,2.1-8.8.5-6.7,3.4-5.2v-4.7l-6.7-6.1-4.9-.5-2.7,2.5-4.8-1.4-2.2-3.2-7.2-.7,32.4-23.9,15.1-1.6,14,.9,5.8-2.7,7,.9-.4,4.1,17.3-2.1-3.7-3.4,11.6-9.2,11.7-1.8,3.8,6.8,11.6-6.1,2.7-4.5,5.6-.5-3.7,7.7-8.1,4.4-7.9,5.6-8.4,7.1-7.4,1.4v2.5l-3.9,3.4-2.2,8,4.4,20.4,1.6,3.6,6.6-5.2,1.4-5.6,6.8-1.4,1.7-6.3,8.1-2.7-1.9-2.6,2.1-4.6h4.3l.6-7.9-5.4-1.6v-2.3l5.6-5.4,1.4-3.6,6.2.7,4.3-2.5,2.1,2,12-4.3,6.6,3.8,1.7-2.5,13.6-7.2,4.1-.7,12.6-4,8.7,1,1.2-1.6s-.3-1.9-.6-2.3-2.1-1.6-2.1-1.6l-2.7-4.5-4.1-2.9,6,.5,5.8-2.5.3-4.4,4.4-1.1-1,2,2.5,2,5.2-.7,4.5.9,1,2.5,5.9,1.5,4.5,2.1h3.6l1.9-1.1v-5.4l7.4-.7,4.5-2.5-8.9-5.2-12.4-.9,1,4.1-2.8-1.7v-2.9l-21.3-8.9-.6-1.8-6.5-2.5-12.8-2.2h-9.5l-14.7-1.6-2.1,2.5,3.7,3.6-5.6,1.8-8.1-5-8.7.7-8.2-.8h-8.9l-5.5,1-6-1.5.6-4.1-3.7-2.3-9.1-.9-18.6,1.1-12-4.3-3.9-3.4-40.7-3.5-6.6,2.4,3.3,5.2-7-.7-3.7,1.6-8.9-1.8-7.9,1.6-7.3-2.5-4.3,5.9-7.2-2.3-5.8-4.3,2.7-2.3-2.1-3.6-7.4-2.9h-7.9l-9.2-.9v3.9l-19.2-.5-1-2.5-14.7-.9-7.2.9-2.1,1.4-2.3-3.6-4.1,1.1-6.8-1.4-5.8-.7,3.5-1.6,17.2-4.8,1-2.9-3.7-2-10.3-2.7h-13.4l-4.1,1.4-1.2-2.7-10.3-.9,6.2-1.4-7.8-1.8-10.7,2.3-4.3,2.5-1.2,2.3h-8.8l-10,2.9-3.7-1.1-12,.5-1.7,1.6-11.7.7-8.9,2.9h-5l-5.8,3.6,3.7,2.9-9.9.5h-10.9l-8.1,1.1.4,5.9,4.6,5-8.5-3.3h-10.2l-7.3,2.2,2.1,4.1-5-.9,1.9-5.4-2.5-2.9h-2.3l1,3.8-8.3,3.8,6,4.5-3.7,5.6,1,3.2,5,.5-2.1,3.6,2.7,3.2-3.6,2.5-1.5,2.9-5,1.4-1.9,2-5.2-.9,8.9-7.9,2.1-3.6-5.2-3.4,1-7.7-1.4-3.8-2.9-1.8,4.3-4.5-1-3.2-12.2-1.4-3.3,1.1-3.1,5-7.9,4.7-.4,2.1,2.5,4.3s-1.6,3.1-1.4,2.7,5.6.5,5.6.5v1.1l4.5,2.9-3.1,2.9-16.8-6.4-7-1.8-12.7-1.5-2.3,1.8,4.7,3.2-5.2,3.6-5.2-3.4-6.8,2.5h-8.5l-3.2,1.8-5.9-.7,4.5-3.6h-3.5l-25.4,7.4-1,3.6-7,1.1-3.7-1.8v-3.2l5.8-.7-2.7-3.2-12.8-1.8,3.3,3.4-2.3,3.4,3.9,3.4-2.4,3.3-5.1-1.8h-3.1l-11.2,5.4,3.1,4.1-3.9,1.4-11.1-3.4-2.9,2,2.7,2.5-.6,2.7-4.1-1.6-5.4-1.4-.5-5-.2-3.2-6.9-3.8,3-.9,19.9,4.2,7.9-1.5,4.7-2.9v-3.6l-3.3-2.5-17.1-6.3-13-1.5-7.4-3.4h.2Z"/>
    <path class="st2" d="M906.8,68.9l-6,2.6s.3,1.6.8,1.5,11.2.2,11.2.2l4.7-1.2.4-.7-6.3-1.7-4.8-.7h0Z"/>
    <path class="st2" d="M737.9,167.8l1.7,5.4v5.4l1.9,5.6,4.5,9.7-6.8-1.8-2.9,7.9,4.5,5.6v3.8l-3.7-3.4-3.1,4.3-.8-4.7.4-5.4-.6-5.9,1-4.3v-7.4l-2.5-5.4.4-7.4,4.1-2.5-1.9-2.5,2.1-.7,1.2,3.6h.5,0Z"/>
    <path class="st2" d="M237.1,210.4l1.2-1.4,3.3,1.1h1.4l.6,1.4h.6v.7l2.3,1.4h4.7l-.8,1.6-5,.9-6.2,3.2-2.5-1.1,1-2.5-5-1.6.8-1.1,4.3-1.8-.6-.7h-.4.3,0Z"/>
    <path class="st2" d="M187.9,164.2h-8.5l-5.6-.5,1-2.5,6.4-1.8,4.7.9,2.1.9-.4,1.6.4,1.4h-.2.1Z"/>
  </g>
  <!-- <path id="MYSpin" class="st0" d="M547,450.6h0c-2.7,0-5-2.2-5-5h0c0-2.7,2.2-5,5-5h0c2.7,0,5,2.2,5,5h0c0,2.7-2.2,5-5,5Z"/>
  <path id="USApin" class="st0" d="M1276.1,224.9h0c-2.7,0-5-2.2-5-5h0c0-2.7,2.2-5,5-5h0c2.7,0,5,2.2,5,5h0c0,2.7-2.2,5-5,5Z"/>
  <path id="CANpin" class="st0" d="M1439.3,222.8h0c-2.7,0-5-2.2-5-5h0c0-2.7,2.2-5,5-5h0c2.7,0,5,2.2,5,5h0c0,2.7-2.2,5-5,5Z"/>
  <path id="MEXpin" class="st0" d="M1277.7,361.4h0c-2.7,0-5-2.2-5-5h0c0-2.7,2.2-5,5-5h0c2.7,0,5,2.2,5,5h0c0,2.7-2.2,5-5,5Z"/>
  <path id="CHLpin" class="st0" d="M1404.3,656h0c-2.7,0-5-2.2-5-5h0c0-2.7,2.2-5,5-5h0c2.7,0,5,2.2,5,5h0c0,2.7-2.2,5-5,5Z"/>
  <path id="PRTpin" class="st0" d="M43.2,243.7h0c-2.7,0-5-2.2-5-5h0c0-2.7,2.2-5,5-5h0c2.7,0,5,2.2,5,5h0c0,2.7-2.2,5-5,5Z"/>
  <path id="IRLpin" class="st0" d="M44.5,177h0c-2.7,0-5-2.2-5-5h0c0-2.7,2.2-5,5-5h0c2.7,0,5,2.2,5,5h0c0,2.7-2.2,5-5,5Z"/>
  <path id="SWEpin" class="st0" d="M165.5,138.3h0c-2.7,0-5-2.2-5-5h0c0-2.7,2.2-5,5-5h0c2.7,0,5,2.2,5,5h0c0,2.7-2.2,5-5,5Z"/>
  <path id="CZEpin" class="st0" d="M158.6,194h0c-2.7,0-5-2.2-5-5h0c0-2.7,2.2-5,5-5h0c2.7,0,5,2.2,5,5h0c0,2.7-2.2,5-5,5Z"/>
  <path id="TURpin" class="st0" d="M217.5,242.3h0c-2.7,0-5-2.2-5-5h0c0-2.7,2.2-5,5-5h0c2.7,0,5,2.2,5,5h0c0,2.7-2.2,5-5,5Z"/>
  <path id="ZAFpin" class="st0" d="M211.7,612.9h0c-2.7,0-5-2.2-5-5h0c0-2.7,2.2-5,5-5h0c2.7,0,5,2.2,5,5h0c0,2.7-2.2,5-5,5Z"/>
  <path id="CHNpin" class="st0" d="M614,245h0c-2.7,0-5-2.2-5-5h0c0-2.7,2.2-5,5-5h0c2.7,0,5,2.2,5,5h0c0,2.7-2.2,5-5,5Z"/>
  <path id="KORpin" class="st0" d="M663.4,262.5h0c-2.7,0-5-2.2-5-5h0c0-2.7,2.2-5,5-5h0c2.7,0,5,2.2,5,5h0c0,2.7-2.2,5-5,5Z"/>
  <path id="AUSpin" class="st0" d="M764.4,660h0c-2.7,0-5-2.2-5-5h0c0-2.7,2.2-5,5-5h0c2.7,0,5,2.2,5,5h0c0,2.7-2.2,5-5,5Z"/>
  <path id="NGApin" class="st0" d="M103.6,429.8h0c-2.7,0-5-2.2-5-5h0c0-2.7,2.2-5,5-5h0c2.7,0,5,2.2,5,5h0c0,2.7-2.2,5-5,5Z"/>
  <path id="RUSpin" class="st0" d="M256.6,162.8h0c-2.7,0-5-2.2-5-5h0c0-2.7,2.2-5,5-5h0c2.7,0,5,2.2,5,5h0c0,2.7-2.2,5-5,5Z"/> -->
  
  <div class="hidden" id="pin"></div>
  
  <!-- <div class="greenwhich"></div>
  <div class="horizontal-line"></div> -->

</svg>